<svg width="152" height="60" viewBox="0 0 152 60" fill="none" xmlns="http://www.w3.org/2000/svg">
<path d="M140.603 6.92725L135.022 31.4715L127.132 21.6113L110.83 19.0652L140.603 6.92725Z" fill="#D1ACFF"/>
<path d="M115.41 29.8352H16.2805C7.78438 29.8352 0.898277 36.4278 0.898277 44.5618C0.898277 52.6957 7.78438 59.2883 16.2805 59.2883H100.028C108.524 59.2883 115.41 52.6957 115.41 44.5618V29.8352Z" fill="#D1ACFF"/>
<path d="M122.211 3.72727H123.543L125.858 9.38068H125.943L128.259 3.72727H129.59V11H128.546V5.73722H128.479L126.334 10.9893H125.467L123.322 5.73366H123.255V11H122.211V3.72727ZM132.971 11.1101C132.434 11.1101 131.971 10.9953 131.583 10.7656C131.197 10.5336 130.899 10.2081 130.688 9.78906C130.48 9.36766 130.375 8.87405 130.375 8.30824C130.375 7.74953 130.48 7.2571 130.688 6.83097C130.899 6.40483 131.192 6.07221 131.569 5.8331C131.947 5.59399 132.39 5.47443 132.897 5.47443C133.204 5.47443 133.503 5.52533 133.792 5.62713C134.08 5.72893 134.34 5.88873 134.569 6.10653C134.799 6.32434 134.98 6.60724 135.113 6.95526C135.245 7.3009 135.311 7.72112 135.311 8.21591V8.59233H130.975V7.79688H134.271C134.271 7.51752 134.214 7.27012 134.1 7.05469C133.987 6.83688 133.827 6.66525 133.621 6.53977C133.417 6.4143 133.178 6.35156 132.904 6.35156C132.605 6.35156 132.345 6.42495 132.123 6.57173C131.902 6.71615 131.732 6.90554 131.611 7.13991C131.493 7.37192 131.434 7.62405 131.434 7.89631V8.51776C131.434 8.88234 131.498 9.19247 131.625 9.44815C131.756 9.70384 131.937 9.89915 132.169 10.0341C132.401 10.1667 132.672 10.233 132.982 10.233C133.183 10.233 133.367 10.2045 133.532 10.1477C133.698 10.0885 133.841 10.0009 133.962 9.88494C134.083 9.76894 134.175 9.62571 134.239 9.45526L135.244 9.63636C135.163 9.93229 135.019 10.1915 134.811 10.4141C134.605 10.6342 134.346 10.8059 134.033 10.929C133.723 11.0497 133.369 11.1101 132.971 11.1101Z" fill="#0C0E23"/>
</svg>
