<svg width="291" height="256" viewBox="0 0 291 256" fill="none" xmlns="http://www.w3.org/2000/svg">
<g clip-path="url(#clip0_2001_3901)">
<rect x="0.374542" y="-19.2529" width="140.175" height="72.3536" rx="6.96848" fill="#10132E"/>
<path d="M43.4578 22.2134V12.0774H47.2588C48.0375 12.0774 48.6908 12.2127 49.2187 12.4832C49.7499 12.7538 50.1508 13.1332 50.4213 13.6216C50.6952 14.1066 50.8321 14.6724 50.8321 15.3191C50.8321 15.9691 50.6935 16.5333 50.4164 17.0118C50.1425 17.4869 49.7383 17.8548 49.2038 18.1154C48.6693 18.3728 48.0127 18.5015 47.234 18.5015H44.5268V16.9771H46.9866C47.4419 16.9771 47.8148 16.9144 48.1051 16.789C48.3955 16.6604 48.6099 16.4739 48.7485 16.2298C48.8904 15.9823 48.9613 15.6788 48.9613 15.3191C48.9613 14.9595 48.8904 14.6526 48.7485 14.3986C48.6066 14.1412 48.3905 13.9466 48.1002 13.8146C47.8098 13.6793 47.4353 13.6117 46.9767 13.6117H45.294V22.2134H43.4578ZM48.6941 17.6205L51.2033 22.2134H49.1543L46.6896 17.6205H48.6941ZM55.6997 22.3619C54.9375 22.3619 54.2792 22.2035 53.7249 21.8867C53.1739 21.5667 52.7499 21.1147 52.453 20.5306C52.156 19.9433 52.0076 19.2521 52.0076 18.4569C52.0076 17.675 52.156 16.9887 52.453 16.3981C52.7532 15.8042 53.1723 15.3422 53.7101 15.0123C54.2479 14.679 54.8797 14.5124 55.6056 14.5124C56.0742 14.5124 56.5163 14.5883 56.932 14.7401C57.3511 14.8886 57.7206 15.1195 58.0406 15.433C58.364 15.7464 58.618 16.1457 58.8028 16.6307C58.9876 17.1124 59.08 17.6865 59.08 18.353V18.9024H52.8489V17.6948H57.3626C57.3593 17.3516 57.2851 17.0464 57.1399 16.7791C56.9947 16.5086 56.7918 16.2958 56.5311 16.1407C56.2738 15.9856 55.9735 15.9081 55.6304 15.9081C55.2641 15.9081 54.9424 15.9972 54.6653 16.1753C54.3881 16.3502 54.172 16.5812 54.0169 16.8682C53.8652 17.152 53.7876 17.4638 53.7843 17.8036V18.8578C53.7843 19.2999 53.8652 19.6794 54.0268 19.9961C54.1885 20.3096 54.4145 20.5504 54.7049 20.7187C54.9952 20.8837 55.3351 20.9662 55.7244 20.9662C55.9851 20.9662 56.221 20.9299 56.4321 20.8573C56.6433 20.7814 56.8264 20.6709 56.9815 20.5257C57.1366 20.3805 57.2537 20.2007 57.3329 19.9862L59.0057 20.1743C58.9002 20.6164 58.6989 21.0025 58.4019 21.3324C58.1083 21.6591 57.7321 21.9131 57.2735 22.0946C56.8149 22.2728 56.2903 22.3619 55.6997 22.3619ZM62.7832 22.3668C62.3015 22.3668 61.8676 22.281 61.4816 22.1094C61.0988 21.9346 60.7953 21.6772 60.5709 21.3374C60.3499 20.9975 60.2393 20.5785 60.2393 20.0803C60.2393 19.6513 60.3185 19.2966 60.4769 19.0162C60.6353 18.7357 60.8514 18.5114 61.1252 18.3431C61.3991 18.1748 61.7076 18.0478 62.0507 17.962C62.3972 17.8729 62.7552 17.8086 63.1247 17.769C63.5701 17.7228 63.9314 17.6816 64.2086 17.6453C64.4857 17.6057 64.687 17.5463 64.8124 17.4671C64.9411 17.3846 65.0054 17.2576 65.0054 17.086V17.0563C65.0054 16.6835 64.8949 16.3948 64.6738 16.1902C64.4527 15.9856 64.1344 15.8833 63.7186 15.8833C63.2798 15.8833 62.9317 15.979 62.6743 16.1704C62.4203 16.3618 62.2487 16.5878 62.1596 16.8484L60.4868 16.6109C60.6188 16.149 60.8365 15.7629 61.1401 15.4528C61.4436 15.1393 61.8148 14.9051 62.2537 14.75C62.6925 14.5916 63.1775 14.5124 63.7087 14.5124C64.075 14.5124 64.4396 14.5553 64.8025 14.6411C65.1654 14.7269 65.497 14.8688 65.7973 15.0667C66.0975 15.2614 66.3384 15.527 66.5199 15.8635C66.7046 16.2001 66.797 16.6208 66.797 17.1256V22.2134H65.0747V21.1691H65.0153C64.9064 21.3803 64.753 21.5782 64.555 21.763C64.3604 21.9445 64.1146 22.0913 63.8176 22.2035C63.5239 22.3124 63.1792 22.3668 62.7832 22.3668ZM63.2484 21.0503C63.6081 21.0503 63.9199 20.9794 64.1838 20.8375C64.4478 20.6923 64.6507 20.501 64.7926 20.2634C64.9378 20.0258 65.0104 19.7668 65.0104 19.4864V18.5906C64.9543 18.6368 64.8586 18.6796 64.7233 18.7192C64.5913 18.7588 64.4429 18.7935 64.2779 18.8232C64.1129 18.8529 63.9496 18.8793 63.7879 18.9024C63.6262 18.9255 63.486 18.9453 63.3672 18.9617C63.1 18.998 62.8608 19.0574 62.6496 19.1399C62.4384 19.2224 62.2718 19.3379 62.1497 19.4864C62.0276 19.6315 61.9666 19.8196 61.9666 20.0506C61.9666 20.3805 62.087 20.6296 62.3279 20.7979C62.5688 20.9662 62.8756 21.0503 63.2484 21.0503ZM71.9145 22.3619C71.1556 22.3619 70.504 22.1952 69.9596 21.862C69.4185 21.5287 69.0011 21.0685 68.7074 20.4812C68.4171 19.8906 68.2719 19.2109 68.2719 18.4421C68.2719 17.67 68.4204 16.9887 68.7173 16.3981C69.0143 15.8042 69.4333 15.3422 69.9744 15.0123C70.5188 14.679 71.1622 14.5124 71.9046 14.5124C72.5216 14.5124 73.0677 14.6262 73.5428 14.8539C74.0212 15.0783 74.4023 15.3967 74.6861 15.8091C74.9698 16.2182 75.1315 16.6967 75.1711 17.2444H73.4587C73.3894 16.8781 73.2244 16.5729 72.9637 16.3288C72.7064 16.0813 72.3616 15.9576 71.9294 15.9576C71.5631 15.9576 71.2414 16.0566 70.9643 16.2545C70.6871 16.4492 70.471 16.7297 70.3159 17.0959C70.1641 17.4621 70.0882 17.901 70.0882 18.4124C70.0882 18.9304 70.1641 19.3758 70.3159 19.7487C70.4677 20.1182 70.6805 20.4036 70.9544 20.6049C71.2315 20.8029 71.5565 20.9018 71.9294 20.9018C72.1933 20.9018 72.4292 20.8523 72.6371 20.7534C72.8483 20.6511 73.0248 20.5043 73.1667 20.3129C73.3085 20.1215 73.4059 19.8889 73.4587 19.615H75.1711C75.1282 20.1529 74.9698 20.6296 74.696 21.0454C74.4221 21.4578 74.0493 21.7811 73.5774 22.0154C73.1056 22.2464 72.5513 22.3619 71.9145 22.3619ZM80.4383 14.6114V15.9972H76.0681V14.6114H80.4383ZM77.1471 12.7901H78.9387V19.9268C78.9387 20.1677 78.975 20.3525 79.0475 20.4812C79.1234 20.6065 79.2224 20.6923 79.3445 20.7385C79.4666 20.7847 79.6019 20.8078 79.7503 20.8078C79.8625 20.8078 79.9648 20.7996 80.0572 20.7831C80.1529 20.7666 80.2255 20.7517 80.275 20.7385L80.5769 22.1391C80.4812 22.1721 80.3442 22.2084 80.1661 22.248C79.9912 22.2876 79.7767 22.3107 79.5227 22.3173C79.0739 22.3305 78.6698 22.2629 78.3101 22.1144C77.9505 21.9626 77.6651 21.7284 77.4539 21.4116C77.246 21.0949 77.1438 20.6989 77.1471 20.2238V12.7901ZM86.0148 12.0774H87.8361V19.2043C87.8328 19.8576 87.6942 20.4201 87.4204 20.8919C87.1465 21.3605 86.7638 21.7218 86.2722 21.9758C85.7838 22.2266 85.2147 22.352 84.5647 22.352C83.9708 22.352 83.4363 22.2464 82.9611 22.0352C82.4893 21.8207 82.1148 21.504 81.8377 21.085C81.5605 20.6659 81.4219 20.1446 81.4219 19.521H83.2482C83.2515 19.7949 83.3109 20.0308 83.4264 20.2287C83.5451 20.4267 83.7085 20.5785 83.9163 20.6841C84.1242 20.7897 84.3634 20.8424 84.634 20.8424C84.9276 20.8424 85.1767 20.7814 85.3813 20.6593C85.5859 20.5339 85.7409 20.3492 85.8465 20.105C85.9554 19.8609 86.0115 19.5606 86.0148 19.2043V12.0774ZM95.3366 14.8638C95.2904 14.4316 95.0958 14.095 94.7526 13.8542C94.4128 13.6133 93.9706 13.4929 93.4262 13.4929C93.0435 13.4929 92.7152 13.5506 92.4413 13.6661C92.1675 13.7816 91.958 13.9383 91.8128 14.1363C91.6676 14.3342 91.5934 14.5603 91.5901 14.8143C91.5901 15.0255 91.6379 15.2086 91.7336 15.3637C91.8326 15.5188 91.9662 15.6507 92.1345 15.7596C92.3028 15.8652 92.4892 15.9543 92.6937 16.0269C92.8983 16.0995 93.1045 16.1605 93.3124 16.21L94.2626 16.4476C94.6454 16.5366 95.0133 16.6571 95.3663 16.8088C95.7227 16.9606 96.0411 17.152 96.3215 17.383C96.6053 17.6139 96.8296 17.8927 96.9946 18.2194C97.1596 18.546 97.2421 18.9288 97.2421 19.3676C97.2421 19.9615 97.0903 20.4845 96.7867 20.9365C96.4832 21.3852 96.0444 21.7366 95.4703 21.9907C94.8994 22.2414 94.2082 22.3668 93.3965 22.3668C92.608 22.3668 91.9233 22.2447 91.3426 22.0006C90.7652 21.7564 90.3132 21.4001 89.9865 20.9315C89.6632 20.463 89.4883 19.8922 89.4619 19.2191H91.2684C91.2948 19.5722 91.4037 19.8658 91.595 20.1001C91.7864 20.3343 92.0355 20.5092 92.3424 20.6247C92.6525 20.7402 92.9989 20.7979 93.3817 20.7979C93.7809 20.7979 94.1307 20.7385 94.4309 20.6197C94.7345 20.4977 94.972 20.3294 95.1436 20.1149C95.3152 19.8972 95.4026 19.6431 95.4059 19.3527C95.4026 19.0888 95.3251 18.871 95.1733 18.6994C95.0215 18.5246 94.8087 18.3794 94.5349 18.2639C94.2643 18.1451 93.9475 18.0395 93.5846 17.9472L92.4314 17.6502C91.5967 17.4357 90.9368 17.1107 90.4518 16.6752C89.97 16.2364 89.7292 15.654 89.7292 14.9281C89.7292 14.3309 89.8908 13.808 90.2142 13.3592C90.5408 12.9105 90.9846 12.5624 91.5455 12.315C92.1064 12.0642 92.7416 11.9388 93.451 11.9388C94.1703 11.9388 94.8005 12.0642 95.3416 12.315C95.886 12.5624 96.3133 12.9072 96.6234 13.3493C96.9336 13.7882 97.0936 14.293 97.1035 14.8638H95.3366Z" fill="white"/>
<rect x="0.374569" y="65.2954" width="140.175" height="72.3536" rx="6.96848" fill="#10132E"/>
<path d="M44.6622 106.761V96.6255H51.2546V98.1647H46.4984V100.916H50.9131V102.456H46.4984V105.222H51.2942V106.761H44.6622ZM54.5136 99.1595L56.0479 101.966L57.6069 99.1595H59.5024L57.2109 102.96L59.542 106.761H57.6564L56.0479 104.025L54.4542 106.761H52.5537L54.87 102.96L52.6131 99.1595H54.5136ZM60.8882 109.612V99.1595H62.6501V100.417H62.754C62.8464 100.232 62.9768 100.036 63.145 99.8276C63.3133 99.6165 63.541 99.4366 63.828 99.2882C64.1151 99.1364 64.4813 99.0605 64.9267 99.0605C65.5141 99.0605 66.0436 99.2106 66.5154 99.5109C66.9906 99.8078 67.3667 100.248 67.6439 100.832C67.9243 101.413 68.0645 102.126 68.0645 102.97C68.0645 103.805 67.9276 104.515 67.6538 105.099C67.3799 105.683 67.0071 106.128 66.5352 106.435C66.0634 106.742 65.5289 106.895 64.9317 106.895C64.4962 106.895 64.1349 106.823 63.8478 106.677C63.5608 106.532 63.3298 106.357 63.1549 106.153C62.9834 105.945 62.8497 105.749 62.754 105.564H62.6798V109.612H60.8882ZM62.6452 102.96C62.6452 103.452 62.7145 103.883 62.853 104.252C62.9949 104.622 63.1978 104.91 63.4618 105.118C63.729 105.323 64.0524 105.425 64.4318 105.425C64.8278 105.425 65.1594 105.32 65.4266 105.108C65.6939 104.894 65.8951 104.602 66.0304 104.232C66.169 103.86 66.2383 103.436 66.2383 102.96C66.2383 102.489 66.1706 102.07 66.0354 101.703C65.9001 101.337 65.6988 101.05 65.4316 100.842C65.1643 100.634 64.8311 100.53 64.4318 100.53C64.0491 100.53 63.7241 100.631 63.4568 100.832C63.1896 101.034 62.9867 101.316 62.8481 101.679C62.7128 102.042 62.6452 102.469 62.6452 102.96ZM69.5988 106.761V99.1595H71.336V100.426H71.4152C71.5537 99.9877 71.7913 99.6495 72.1278 99.4119C72.4677 99.171 72.8554 99.0506 73.2909 99.0506C73.3899 99.0506 73.5004 99.0556 73.6225 99.0655C73.7479 99.0721 73.8518 99.0836 73.9343 99.1001V100.748C73.8584 100.722 73.738 100.699 73.573 100.679C73.4113 100.656 73.2546 100.644 73.1028 100.644C72.7762 100.644 72.4825 100.715 72.2219 100.857C71.9645 100.996 71.7616 101.189 71.6131 101.436C71.4647 101.684 71.3904 101.969 71.3904 102.292V106.761H69.5988ZM78.177 106.91C77.4148 106.91 76.7566 106.752 76.2023 106.435C75.6513 106.115 75.2273 105.663 74.9303 105.079C74.6334 104.491 74.4849 103.8 74.4849 103.005C74.4849 102.223 74.6334 101.537 74.9303 100.946C75.2306 100.352 75.6496 99.8903 76.1874 99.5604C76.7252 99.2271 77.3571 99.0605 78.083 99.0605C78.5515 99.0605 78.9936 99.1364 79.4094 99.2882C79.8284 99.4366 80.1979 99.6676 80.518 99.9811C80.8413 100.295 81.0954 100.694 81.2802 101.179C81.4649 101.66 81.5573 102.235 81.5573 102.901V103.45H75.3263V102.243H79.8399C79.8366 101.9 79.7624 101.595 79.6172 101.327C79.4721 101.057 79.2691 100.844 79.0085 100.689C78.7511 100.534 78.4509 100.456 78.1077 100.456C77.7415 100.456 77.4198 100.545 77.1426 100.723C76.8655 100.898 76.6494 101.129 76.4943 101.416C76.3425 101.7 76.265 102.012 76.2617 102.352V103.406C76.2617 103.848 76.3425 104.227 76.5042 104.544C76.6659 104.858 76.8919 105.099 77.1822 105.267C77.4726 105.432 77.8124 105.514 78.2018 105.514C78.4624 105.514 78.6983 105.478 78.9095 105.405C79.1207 105.33 79.3038 105.219 79.4589 105.074C79.6139 104.929 79.7311 104.749 79.8103 104.534L81.4831 104.722C81.3775 105.165 81.1762 105.551 80.8793 105.881C80.5856 106.207 80.2095 106.461 79.7509 106.643C79.2922 106.821 78.7676 106.91 78.177 106.91ZM89.0814 101.169L87.4481 101.347C87.4019 101.182 87.3211 101.027 87.2056 100.882C87.0934 100.737 86.9416 100.62 86.7503 100.53C86.5589 100.441 86.3246 100.397 86.0475 100.397C85.6746 100.397 85.3612 100.478 85.1071 100.639C84.8564 100.801 84.7326 101.01 84.7359 101.268C84.7326 101.489 84.8135 101.669 84.9785 101.807C85.1467 101.946 85.4239 102.06 85.8099 102.149L87.1066 102.426C87.8259 102.581 88.3604 102.827 88.7102 103.163C89.0632 103.5 89.2414 103.94 89.2447 104.485C89.2414 104.963 89.1011 105.386 88.824 105.752C88.5501 106.115 88.169 106.399 87.6807 106.603C87.1924 106.808 86.6315 106.91 85.998 106.91C85.0675 106.91 84.3186 106.715 83.7511 106.326C83.1835 105.933 82.8454 105.387 82.7365 104.688L84.4835 104.519C84.5627 104.863 84.731 105.122 84.9884 105.297C85.2457 105.471 85.5806 105.559 85.993 105.559C86.4187 105.559 86.7602 105.471 87.0175 105.297C87.2782 105.122 87.4085 104.906 87.4085 104.648C87.4085 104.43 87.3244 104.251 87.1561 104.109C86.9911 103.967 86.7338 103.858 86.384 103.782L85.0873 103.51C84.3582 103.358 83.8187 103.102 83.469 102.743C83.1192 102.38 82.946 101.921 82.9493 101.367C82.946 100.898 83.073 100.492 83.3304 100.149C83.591 99.8029 83.9523 99.5356 84.4142 99.3476C84.8795 99.1562 85.4156 99.0605 86.0227 99.0605C86.9136 99.0605 87.6147 99.2502 88.1262 99.6297C88.6409 100.009 88.9593 100.522 89.0814 101.169ZM96.7303 101.169L95.0971 101.347C95.0509 101.182 94.9701 101.027 94.8546 100.882C94.7424 100.737 94.5906 100.62 94.3993 100.53C94.2079 100.441 93.9736 100.397 93.6965 100.397C93.3236 100.397 93.0102 100.478 92.7561 100.639C92.5054 100.801 92.3816 101.01 92.3849 101.268C92.3816 101.489 92.4625 101.669 92.6275 101.807C92.7957 101.946 93.0729 102.06 93.4589 102.149L94.7556 102.426C95.4749 102.581 96.0094 102.827 96.3592 103.163C96.7122 103.5 96.8904 103.94 96.8937 104.485C96.8904 104.963 96.7501 105.386 96.473 105.752C96.1991 106.115 95.818 106.399 95.3297 106.603C94.8414 106.808 94.2805 106.91 93.647 106.91C92.7165 106.91 91.9676 106.715 91.4001 106.326C90.8325 105.933 90.4943 105.387 90.3855 104.688L92.1325 104.519C92.2117 104.863 92.38 105.122 92.6374 105.297C92.8947 105.471 93.2296 105.559 93.642 105.559C94.0677 105.559 94.4092 105.471 94.6665 105.297C94.9272 105.122 95.0575 104.906 95.0575 104.648C95.0575 104.43 94.9734 104.251 94.8051 104.109C94.6401 103.967 94.3828 103.858 94.033 103.782L92.7363 103.51C92.0072 103.358 91.4677 103.102 91.1179 102.743C90.7682 102.38 90.595 101.921 90.5983 101.367C90.595 100.898 90.722 100.492 90.9794 100.149C91.24 99.8029 91.6013 99.5356 92.0632 99.3476C92.5285 99.1562 93.0646 99.0605 93.6717 99.0605C94.5626 99.0605 95.2637 99.2502 95.7752 99.6297C96.2899 100.009 96.6083 100.522 96.7303 101.169Z" fill="white"/>
<rect x="0.374569" y="149.844" width="140.175" height="72.3536" rx="6.96848" fill="#10132E"/>
<path d="M35.6127 182.713V181.174H43.6997V182.713H40.5668V191.31H38.7455V182.713H35.6127ZM45.422 194.161C45.1779 194.161 44.9518 194.141 44.744 194.101C44.5394 194.065 44.3761 194.022 44.254 193.973L44.6697 192.577C44.9304 192.653 45.163 192.689 45.3676 192.686C45.5721 192.683 45.752 192.618 45.907 192.493C46.0654 192.371 46.199 192.166 46.3079 191.879L46.4613 191.468L43.7046 183.708H45.6051L47.3572 189.449H47.4363L49.1933 183.708H51.0988L48.055 192.231C47.9131 192.633 47.725 192.978 47.4908 193.265C47.2565 193.555 46.9695 193.776 46.6296 193.928C46.2931 194.083 45.8905 194.161 45.422 194.161ZM52.3385 194.161V183.708H54.1004V184.965H54.2044C54.2968 184.78 54.4271 184.584 54.5954 184.376C54.7636 184.165 54.9913 183.985 55.2784 183.837C55.5654 183.685 55.9317 183.609 56.3771 183.609C56.9644 183.609 57.494 183.759 57.9658 184.059C58.4409 184.356 58.817 184.797 59.0942 185.381C59.3747 185.962 59.5149 186.674 59.5149 187.519C59.5149 188.354 59.378 189.063 59.1041 189.647C58.8302 190.231 58.4574 190.677 57.9856 190.983C57.5138 191.29 56.9792 191.444 56.382 191.444C55.9465 191.444 55.5852 191.371 55.2982 191.226C55.0111 191.081 54.7801 190.906 54.6053 190.701C54.4337 190.493 54.3001 190.297 54.2044 190.112H54.1301V194.161H52.3385ZM54.0955 187.509C54.0955 188.001 54.1648 188.431 54.3034 188.801C54.4452 189.17 54.6482 189.459 54.9121 189.667C55.1794 189.871 55.5027 189.974 55.8822 189.974C56.2781 189.974 56.6097 189.868 56.877 189.657C57.1442 189.443 57.3455 189.151 57.4808 188.781C57.6193 188.408 57.6886 187.984 57.6886 187.509C57.6886 187.037 57.621 186.618 57.4857 186.252C57.3504 185.886 57.1492 185.599 56.8819 185.391C56.6146 185.183 56.2814 185.079 55.8822 185.079C55.4994 185.079 55.1744 185.18 54.9072 185.381C54.6399 185.582 54.437 185.864 54.2984 186.227C54.1631 186.59 54.0955 187.017 54.0955 187.509ZM64.4146 191.459C63.6524 191.459 62.9942 191.3 62.4399 190.983C61.8888 190.663 61.4649 190.211 61.1679 189.627C60.871 189.04 60.7225 188.349 60.7225 187.554C60.7225 186.772 60.871 186.085 61.1679 185.495C61.4682 184.901 61.8872 184.439 62.425 184.109C62.9628 183.776 63.5947 183.609 64.3206 183.609C64.7891 183.609 65.2312 183.685 65.6469 183.837C66.066 183.985 66.4355 184.216 66.7556 184.53C67.0789 184.843 67.333 185.242 67.5177 185.727C67.7025 186.209 67.7949 186.783 67.7949 187.45V187.999H61.5639V186.791H66.0775C66.0742 186.448 66 186.143 65.8548 185.876C65.7096 185.605 65.5067 185.392 65.2461 185.237C64.9887 185.082 64.6885 185.005 64.3453 185.005C63.9791 185.005 63.6574 185.094 63.3802 185.272C63.1031 185.447 62.8869 185.678 62.7319 185.965C62.5801 186.249 62.5026 186.56 62.4993 186.9V187.954C62.4993 188.397 62.5801 188.776 62.7418 189.093C62.9034 189.406 63.1295 189.647 63.4198 189.815C63.7102 189.98 64.05 190.063 64.4393 190.063C64.7 190.063 64.9359 190.027 65.1471 189.954C65.3582 189.878 65.5414 189.768 65.6964 189.622C65.8515 189.477 65.9686 189.297 66.0478 189.083L67.7207 189.271C67.6151 189.713 67.4138 190.099 67.1169 190.429C66.8232 190.756 66.4471 191.01 65.9884 191.191C65.5298 191.369 65.0052 191.459 64.4146 191.459ZM75.3189 185.717L73.6857 185.896C73.6395 185.731 73.5587 185.576 73.4432 185.43C73.331 185.285 73.1792 185.168 72.9879 185.079C72.7965 184.99 72.5622 184.945 72.2851 184.945C71.9122 184.945 71.5988 185.026 71.3447 185.188C71.094 185.35 70.9702 185.559 70.9735 185.816C70.9702 186.038 71.0511 186.217 71.216 186.356C71.3843 186.494 71.6615 186.608 72.0475 186.697L73.3442 186.975C74.0635 187.13 74.598 187.375 74.9477 187.712C75.3008 188.049 75.479 188.489 75.4823 189.033C75.479 189.512 75.3387 189.934 75.0616 190.3C74.7877 190.663 74.4066 190.947 73.9183 191.152C73.43 191.356 72.8691 191.459 72.2356 191.459C71.3051 191.459 70.5561 191.264 69.9886 190.875C69.4211 190.482 69.0829 189.936 68.9741 189.236L70.7211 189.068C70.8003 189.411 70.9686 189.67 71.2259 189.845C71.4833 190.02 71.8182 190.107 72.2306 190.107C72.6563 190.107 72.9978 190.02 73.2551 189.845C73.5158 189.67 73.6461 189.454 73.6461 189.197C73.6461 188.979 73.562 188.799 73.3937 188.657C73.2287 188.515 72.9714 188.407 72.6216 188.331L71.3249 188.058C70.5957 187.907 70.0563 187.651 69.7065 187.291C69.3568 186.928 69.1836 186.47 69.1869 185.915C69.1836 185.447 69.3106 185.041 69.568 184.698C69.8286 184.351 70.1899 184.084 70.6518 183.896C71.1171 183.705 71.6532 183.609 72.2603 183.609C73.1512 183.609 73.8523 183.799 74.3637 184.178C74.8785 184.558 75.1969 185.071 75.3189 185.717ZM80.2756 191.459C79.5167 191.459 78.865 191.292 78.3206 190.959C77.7795 190.625 77.3621 190.165 77.0685 189.578C76.7781 188.987 76.6329 188.308 76.6329 187.539C76.6329 186.767 76.7814 186.085 77.0784 185.495C77.3753 184.901 77.7944 184.439 78.3355 184.109C78.8799 183.776 79.5233 183.609 80.2657 183.609C80.8827 183.609 81.4287 183.723 81.9039 183.951C82.3823 184.175 82.7634 184.493 83.0471 184.906C83.3309 185.315 83.4925 185.793 83.5321 186.341H81.8197C81.7504 185.975 81.5855 185.67 81.3248 185.425C81.0674 185.178 80.7226 185.054 80.2904 185.054C79.9242 185.054 79.6025 185.153 79.3253 185.351C79.0482 185.546 78.832 185.826 78.677 186.193C78.5252 186.559 78.4493 186.998 78.4493 187.509C78.4493 188.027 78.5252 188.473 78.677 188.845C78.8287 189.215 79.0416 189.5 79.3154 189.702C79.5926 189.9 79.9176 189.999 80.2904 189.999C80.5544 189.999 80.7903 189.949 80.9981 189.85C81.2093 189.748 81.3858 189.601 81.5277 189.41C81.6696 189.218 81.7669 188.986 81.8197 188.712H83.5321C83.4892 189.25 83.3309 189.726 83.057 190.142C82.7832 190.554 82.4103 190.878 81.9385 191.112C81.4667 191.343 80.9124 191.459 80.2756 191.459ZM85.0033 191.31V183.708H86.7405V184.975H86.8197C86.9582 184.536 87.1958 184.198 87.5323 183.96C87.8722 183.72 88.2599 183.599 88.6954 183.599C88.7944 183.599 88.9049 183.604 89.027 183.614C89.1524 183.621 89.2563 183.632 89.3388 183.649V185.297C89.2629 185.27 89.1425 185.247 88.9775 185.227C88.8158 185.204 88.6591 185.193 88.5073 185.193C88.1807 185.193 87.887 185.264 87.6264 185.406C87.369 185.544 87.1661 185.737 87.0176 185.985C86.8691 186.232 86.7949 186.518 86.7949 186.841V191.31H85.0033ZM90.5291 191.31V183.708H92.3207V191.31H90.5291ZM91.4298 182.629C91.1461 182.629 90.9019 182.535 90.6974 182.347C90.4928 182.156 90.3905 181.926 90.3905 181.659C90.3905 181.389 90.4928 181.159 90.6974 180.971C90.9019 180.78 91.1461 180.684 91.4298 180.684C91.7169 180.684 91.9611 180.78 92.1623 180.971C92.3669 181.159 92.4692 181.389 92.4692 181.659C92.4692 181.926 92.3669 182.156 92.1623 182.347C91.9611 182.535 91.7169 182.629 91.4298 182.629ZM94.163 194.161V183.708H95.925V184.965H96.0289C96.1213 184.78 96.2516 184.584 96.4199 184.376C96.5881 184.165 96.8158 183.985 97.1029 183.837C97.3899 183.685 97.7562 183.609 98.2016 183.609C98.7889 183.609 99.3185 183.759 99.7903 184.059C100.265 184.356 100.642 184.797 100.919 185.381C101.199 185.962 101.339 186.674 101.339 187.519C101.339 188.354 101.202 189.063 100.929 189.647C100.655 190.231 100.282 190.677 99.8101 190.983C99.3383 191.29 98.8037 191.444 98.2065 191.444C97.771 191.444 97.4097 191.371 97.1227 191.226C96.8356 191.081 96.6046 190.906 96.4298 190.701C96.2582 190.493 96.1246 190.297 96.0289 190.112H95.9547V194.161H94.163ZM95.92 187.509C95.92 188.001 95.9893 188.431 96.1279 188.801C96.2697 189.17 96.4727 189.459 96.7366 189.667C97.0039 189.871 97.3272 189.974 97.7067 189.974C98.1026 189.974 98.4342 189.868 98.7015 189.657C98.9687 189.443 99.17 189.151 99.3053 188.781C99.4438 188.408 99.5131 187.984 99.5131 187.509C99.5131 187.037 99.4455 186.618 99.3102 186.252C99.1749 185.886 98.9737 185.599 98.7064 185.391C98.4392 185.183 98.1059 185.079 97.7067 185.079C97.3239 185.079 96.9989 185.18 96.7317 185.381C96.4644 185.582 96.2615 185.864 96.1229 186.227C95.9876 186.59 95.92 187.017 95.92 187.509ZM106.67 183.708V185.094H102.3V183.708H106.67ZM103.378 181.887H105.17V189.024C105.17 189.264 105.206 189.449 105.279 189.578C105.355 189.703 105.454 189.789 105.576 189.835C105.698 189.881 105.833 189.904 105.982 189.904C106.094 189.904 106.196 189.896 106.289 189.88C106.384 189.863 106.457 189.848 106.506 189.835L106.808 191.236C106.713 191.269 106.576 191.305 106.397 191.345C106.223 191.384 106.008 191.407 105.754 191.414C105.305 191.427 104.901 191.36 104.542 191.211C104.182 191.059 103.896 190.825 103.685 190.508C103.477 190.192 103.375 189.796 103.378 189.32V181.887Z" fill="white"/>
<rect x="0.374569" y="234.392" width="140.175" height="72.3536" rx="6.96848" fill="#10132E"/>
</g>
<g clip-path="url(#clip1_2001_3901)">
<rect x="150.197" y="-55.2568" width="140.175" height="72.3536" rx="6.96848" fill="#10132E"/>
<rect x="150.197" y="29.2915" width="140.175" height="72.3536" rx="6.96848" fill="#10132E"/>
<path d="M200.89 60.6218L203.528 68.6H203.632L206.265 60.6218H208.284L204.711 70.7578H202.444L198.875 60.6218H200.89ZM214.385 67.5606V63.1558H216.177V70.7578H214.439V69.4067H214.36C214.189 69.8323 213.907 70.1804 213.514 70.451C213.125 70.7215 212.645 70.8568 212.074 70.8568C211.576 70.8568 211.135 70.7463 210.752 70.5252C210.373 70.3008 210.076 69.9758 209.861 69.5502C209.647 69.1213 209.54 68.6033 209.54 67.9962V63.1558H211.331V67.719C211.331 68.2007 211.463 68.5835 211.727 68.8672C211.991 69.151 212.338 69.2928 212.767 69.2928C213.031 69.2928 213.286 69.2285 213.534 69.0998C213.781 68.9711 213.984 68.7798 214.142 68.5257C214.304 68.2684 214.385 67.9467 214.385 67.5606ZM221.384 70.9063C220.622 70.9063 219.964 70.7479 219.41 70.4312C218.859 70.1111 218.435 69.6591 218.138 69.0751C217.841 68.4878 217.692 67.7965 217.692 67.0014C217.692 66.2194 217.841 65.5331 218.138 64.9425C218.438 64.3486 218.857 63.8867 219.395 63.5567C219.933 63.2235 220.565 63.0568 221.29 63.0568C221.759 63.0568 222.201 63.1327 222.617 63.2845C223.036 63.433 223.405 63.6639 223.725 63.9774C224.049 64.2908 224.303 64.6901 224.488 65.1751C224.672 65.6568 224.765 66.2309 224.765 66.8974V67.4468H218.534V66.2392H223.047C223.044 65.896 222.97 65.5908 222.825 65.3236C222.679 65.053 222.477 64.8402 222.216 64.6851C221.959 64.5301 221.658 64.4525 221.315 64.4525C220.949 64.4525 220.627 64.5416 220.35 64.7198C220.073 64.8947 219.857 65.1256 219.702 65.4127C219.55 65.6964 219.472 66.0082 219.469 66.3481V67.4023C219.469 67.8444 219.55 68.2238 219.712 68.5406C219.873 68.854 220.099 69.0949 220.39 69.2632C220.68 69.4281 221.02 69.5106 221.409 69.5106C221.67 69.5106 221.906 69.4743 222.117 69.4017C222.328 69.3258 222.511 69.2153 222.666 69.0701C222.821 68.925 222.938 68.7451 223.018 68.5307L224.69 68.7187C224.585 69.1609 224.384 69.5469 224.087 69.8769C223.793 70.2035 223.417 70.4576 222.958 70.639C222.5 70.8172 221.975 70.9063 221.384 70.9063ZM230.359 60.6218H232.18V67.7487C232.177 68.402 232.038 68.9645 231.764 69.4364C231.49 69.9049 231.108 70.2662 230.616 70.5203C230.128 70.771 229.558 70.8964 228.908 70.8964C228.315 70.8964 227.78 70.7908 227.305 70.5796C226.833 70.3652 226.459 70.0484 226.181 69.6294C225.904 69.2104 225.766 68.689 225.766 68.0654H227.592C227.595 68.3393 227.655 68.5752 227.77 68.7732C227.889 68.9711 228.052 69.1229 228.26 69.2285C228.468 69.3341 228.707 69.3869 228.978 69.3869C229.271 69.3869 229.521 69.3258 229.725 69.2038C229.93 69.0784 230.085 68.8936 230.19 68.6495C230.299 68.4053 230.355 68.105 230.359 67.7487V60.6218ZM239.68 63.4082C239.634 62.976 239.44 62.6395 239.096 62.3986C238.757 62.1577 238.314 62.0373 237.77 62.0373C237.387 62.0373 237.059 62.0951 236.785 62.2105C236.511 62.326 236.302 62.4827 236.157 62.6807C236.011 62.8787 235.937 63.1047 235.934 63.3587C235.934 63.5699 235.982 63.753 236.077 63.9081C236.176 64.0632 236.31 64.1952 236.478 64.304C236.647 64.4096 236.833 64.4987 237.038 64.5713C237.242 64.6439 237.448 64.7049 237.656 64.7544L238.606 64.992C238.989 65.0811 239.357 65.2015 239.71 65.3533C240.066 65.5051 240.385 65.6964 240.665 65.9274C240.949 66.1583 241.173 66.4372 241.338 66.7638C241.503 67.0905 241.586 67.4732 241.586 67.912C241.586 68.5059 241.434 69.0289 241.131 69.4809C240.827 69.9296 240.388 70.281 239.814 70.5351C239.243 70.7859 238.552 70.9112 237.74 70.9112C236.952 70.9112 236.267 70.7892 235.686 70.545C235.109 70.3008 234.657 69.9445 234.33 69.476C234.007 69.0074 233.832 68.4366 233.806 67.7635H235.612C235.639 68.1166 235.747 68.4102 235.939 68.6445C236.13 68.8788 236.379 69.0536 236.686 69.1691C236.996 69.2846 237.343 69.3423 237.725 69.3423C238.125 69.3423 238.474 69.2829 238.775 69.1642C239.078 69.0421 239.316 68.8738 239.487 68.6593C239.659 68.4416 239.746 68.1875 239.75 67.8972C239.746 67.6332 239.669 67.4154 239.517 67.2439C239.365 67.069 239.152 66.9238 238.879 66.8083C238.608 66.6896 238.291 66.584 237.928 66.4916L236.775 66.1946C235.94 65.9802 235.281 65.6552 234.796 65.2197C234.314 64.7808 234.073 64.1985 234.073 63.4726C234.073 62.8754 234.235 62.3524 234.558 61.9037C234.885 61.455 235.328 61.1069 235.889 60.8594C236.45 60.6086 237.085 60.4833 237.795 60.4833C238.514 60.4833 239.144 60.6086 239.685 60.8594C240.23 61.1069 240.657 61.4517 240.967 61.8938C241.277 62.3326 241.437 62.8374 241.447 63.4082H239.68Z" fill="white"/>
<rect x="150.197" y="113.84" width="140.175" height="72.3536" rx="6.96848" fill="#10132E"/>
<path d="M205.901 145.17V155.306H204.268L199.492 148.402H199.408V155.306H197.571V145.17H199.215L203.986 152.08H204.075V145.17H205.901ZM212.668 152.109V147.704H214.459V155.306H212.722V153.955H212.643C212.471 154.381 212.189 154.729 211.797 155C211.407 155.27 210.927 155.405 210.356 155.405C209.858 155.405 209.418 155.295 209.035 155.074C208.656 154.849 208.359 154.524 208.144 154.099C207.93 153.67 207.822 153.152 207.822 152.545V147.704H209.614V152.268C209.614 152.749 209.746 153.132 210.01 153.416C210.274 153.7 210.62 153.841 211.049 153.841C211.313 153.841 211.569 153.777 211.816 153.648C212.064 153.52 212.267 153.328 212.425 153.074C212.587 152.817 212.668 152.495 212.668 152.109ZM217.767 147.704L219.301 150.511L220.86 147.704H222.755L220.464 151.505L222.795 155.306H220.909L219.301 152.569L217.707 155.306H215.807L218.123 151.505L215.866 147.704H217.767ZM227.937 147.704V149.09H223.567V147.704H227.937ZM224.646 145.883H226.438V153.02C226.438 153.261 226.474 153.445 226.547 153.574C226.622 153.7 226.721 153.785 226.843 153.832C226.966 153.878 227.101 153.901 227.249 153.901C227.361 153.901 227.464 153.893 227.556 153.876C227.652 153.86 227.724 153.845 227.774 153.832L228.076 155.232C227.98 155.265 227.843 155.301 227.665 155.341C227.49 155.381 227.276 155.404 227.022 155.41C226.573 155.424 226.169 155.356 225.809 155.207C225.449 155.056 225.164 154.821 224.953 154.505C224.745 154.188 224.643 153.792 224.646 153.317V145.883ZM233.514 145.17H235.335V152.297C235.332 152.951 235.193 153.513 234.919 153.985C234.645 154.453 234.263 154.815 233.771 155.069C233.283 155.32 232.714 155.445 232.064 155.445C231.47 155.445 230.935 155.339 230.46 155.128C229.988 154.914 229.614 154.597 229.337 154.178C229.059 153.759 228.921 153.238 228.921 152.614H230.747C230.75 152.888 230.81 153.124 230.925 153.322C231.044 153.52 231.207 153.672 231.415 153.777C231.623 153.883 231.862 153.935 232.133 153.935C232.427 153.935 232.676 153.874 232.88 153.752C233.085 153.627 233.24 153.442 233.346 153.198C233.454 152.954 233.51 152.654 233.514 152.297V145.17ZM242.836 147.957C242.789 147.525 242.595 147.188 242.252 146.947C241.912 146.706 241.47 146.586 240.925 146.586C240.542 146.586 240.214 146.644 239.94 146.759C239.666 146.875 239.457 147.031 239.312 147.229C239.167 147.427 239.092 147.653 239.089 147.907C239.089 148.118 239.137 148.302 239.233 148.457C239.332 148.612 239.465 148.744 239.633 148.853C239.802 148.958 239.988 149.047 240.193 149.12C240.397 149.192 240.604 149.254 240.811 149.303L241.762 149.541C242.144 149.63 242.512 149.75 242.865 149.902C243.222 150.054 243.54 150.245 243.82 150.476C244.104 150.707 244.329 150.986 244.494 151.312C244.659 151.639 244.741 152.022 244.741 152.461C244.741 153.055 244.589 153.577 244.286 154.03C243.982 154.478 243.543 154.83 242.969 155.084C242.398 155.334 241.707 155.46 240.896 155.46C240.107 155.46 239.422 155.338 238.842 155.094C238.264 154.849 237.812 154.493 237.486 154.025C237.162 153.556 236.987 152.985 236.961 152.312H238.767C238.794 152.665 238.903 152.959 239.094 153.193C239.285 153.427 239.534 153.602 239.841 153.718C240.151 153.833 240.498 153.891 240.881 153.891C241.28 153.891 241.63 153.832 241.93 153.713C242.233 153.591 242.471 153.422 242.643 153.208C242.814 152.99 242.902 152.736 242.905 152.446C242.902 152.182 242.824 151.964 242.672 151.792C242.521 151.618 242.308 151.472 242.034 151.357C241.763 151.238 241.447 151.133 241.084 151.04L239.93 150.743C239.096 150.529 238.436 150.204 237.951 149.768C237.469 149.329 237.228 148.747 237.228 148.021C237.228 147.424 237.39 146.901 237.713 146.452C238.04 146.004 238.484 145.655 239.045 145.408C239.605 145.157 240.241 145.032 240.95 145.032C241.669 145.032 242.299 145.157 242.841 145.408C243.385 145.655 243.812 146 244.122 146.442C244.433 146.881 244.593 147.386 244.602 147.957H242.836Z" fill="white"/>
<rect x="150.197" y="198.388" width="140.175" height="72.3536" rx="6.96848" fill="#10132E"/>
<path d="M198.329 232.956C198.247 232.688 198.133 232.449 197.988 232.238C197.846 232.023 197.674 231.84 197.473 231.689C197.275 231.537 197.047 231.423 196.79 231.347C196.533 231.268 196.252 231.228 195.949 231.228C195.404 231.228 194.919 231.365 194.493 231.639C194.068 231.913 193.733 232.315 193.489 232.847C193.248 233.375 193.127 234.018 193.127 234.777C193.127 235.542 193.248 236.191 193.489 236.722C193.73 237.253 194.065 237.657 194.493 237.934C194.922 238.208 195.421 238.345 195.988 238.345C196.503 238.345 196.948 238.246 197.324 238.048C197.704 237.85 197.996 237.57 198.2 237.207C198.405 236.841 198.507 236.412 198.507 235.92L198.923 235.984H196.171V234.549H200.284V235.767C200.284 236.634 200.099 237.385 199.73 238.019C199.36 238.652 198.852 239.14 198.205 239.484C197.559 239.823 196.816 239.993 195.978 239.993C195.044 239.993 194.225 239.784 193.518 239.365C192.816 238.942 192.266 238.344 191.87 237.568C191.478 236.79 191.281 235.866 191.281 234.797C191.281 233.978 191.397 233.248 191.628 232.604C191.862 231.961 192.189 231.415 192.608 230.966C193.027 230.514 193.518 230.171 194.083 229.937C194.647 229.699 195.261 229.58 195.924 229.58C196.485 229.58 197.008 229.663 197.493 229.828C197.978 229.989 198.408 230.22 198.784 230.521C199.164 230.821 199.476 231.177 199.72 231.59C199.964 232.002 200.124 232.457 200.2 232.956H198.329ZM201.98 239.855V232.253H203.718V233.52H203.797C203.935 233.081 204.173 232.743 204.509 232.505C204.849 232.264 205.237 232.144 205.673 232.144C205.771 232.144 205.882 232.149 206.004 232.159C206.129 232.165 206.233 232.177 206.316 232.193V233.841C206.24 233.815 206.12 233.792 205.955 233.772C205.793 233.749 205.636 233.738 205.484 233.738C205.158 233.738 204.864 233.808 204.603 233.95C204.346 234.089 204.143 234.282 203.995 234.529C203.846 234.777 203.772 235.062 203.772 235.386V239.855H201.98ZM209.558 240.008C209.076 240.008 208.642 239.922 208.256 239.751C207.873 239.576 207.57 239.319 207.345 238.979C207.124 238.639 207.014 238.22 207.014 237.722C207.014 237.293 207.093 236.938 207.251 236.658C207.41 236.377 207.626 236.153 207.9 235.984C208.173 235.816 208.482 235.689 208.825 235.603C209.172 235.514 209.53 235.45 209.899 235.41C210.345 235.364 210.706 235.323 210.983 235.287C211.26 235.247 211.461 235.188 211.587 235.108C211.715 235.026 211.78 234.899 211.78 234.727V234.698C211.78 234.325 211.669 234.036 211.448 233.832C211.227 233.627 210.909 233.525 210.493 233.525C210.054 233.525 209.706 233.62 209.449 233.812C209.195 234.003 209.023 234.229 208.934 234.49L207.261 234.252C207.393 233.79 207.611 233.404 207.914 233.094C208.218 232.781 208.589 232.546 209.028 232.391C209.467 232.233 209.952 232.154 210.483 232.154C210.849 232.154 211.214 232.197 211.577 232.282C211.94 232.368 212.271 232.51 212.572 232.708C212.872 232.903 213.113 233.168 213.294 233.505C213.479 233.841 213.571 234.262 213.571 234.767V239.855H211.849V238.81H211.79C211.681 239.022 211.527 239.22 211.329 239.404C211.135 239.586 210.889 239.733 210.592 239.845C210.298 239.954 209.954 240.008 209.558 240.008ZM210.023 238.692C210.382 238.692 210.694 238.621 210.958 238.479C211.222 238.334 211.425 238.142 211.567 237.905C211.712 237.667 211.785 237.408 211.785 237.128V236.232C211.729 236.278 211.633 236.321 211.498 236.361C211.366 236.4 211.217 236.435 211.052 236.465C210.887 236.494 210.724 236.521 210.562 236.544C210.401 236.567 210.26 236.587 210.142 236.603C209.874 236.639 209.635 236.699 209.424 236.781C209.213 236.864 209.046 236.979 208.924 237.128C208.802 237.273 208.741 237.461 208.741 237.692C208.741 238.022 208.861 238.271 209.102 238.439C209.343 238.608 209.65 238.692 210.023 238.692ZM215.373 242.705V232.253H217.135V233.51H217.239C217.331 233.325 217.462 233.129 217.63 232.921C217.798 232.71 218.026 232.53 218.313 232.381C218.6 232.23 218.966 232.154 219.411 232.154C219.999 232.154 220.528 232.304 221 232.604C221.475 232.901 221.851 233.342 222.129 233.926C222.409 234.506 222.549 235.219 222.549 236.064C222.549 236.898 222.412 237.608 222.139 238.192C221.865 238.776 221.492 239.221 221.02 239.528C220.548 239.835 220.014 239.988 219.416 239.988C218.981 239.988 218.62 239.916 218.333 239.771C218.046 239.625 217.815 239.451 217.64 239.246C217.468 239.038 217.334 238.842 217.239 238.657H217.165V242.705H215.373ZM217.13 236.054C217.13 236.545 217.199 236.976 217.338 237.345C217.48 237.715 217.683 238.004 217.947 238.212C218.214 238.416 218.537 238.518 218.917 238.518C219.313 238.518 219.644 238.413 219.911 238.202C220.179 237.987 220.38 237.695 220.515 237.326C220.654 236.953 220.723 236.529 220.723 236.054C220.723 235.582 220.655 235.163 220.52 234.797C220.385 234.43 220.184 234.143 219.916 233.935C219.649 233.728 219.316 233.624 218.917 233.624C218.534 233.624 218.209 233.724 217.942 233.926C217.674 234.127 217.471 234.409 217.333 234.772C217.198 235.135 217.13 235.562 217.13 236.054ZM225.875 235.4V239.855H224.084V229.719H225.836V233.544H225.925C226.103 233.116 226.378 232.777 226.751 232.53C227.127 232.279 227.606 232.154 228.186 232.154C228.714 232.154 229.175 232.264 229.567 232.485C229.96 232.706 230.263 233.03 230.478 233.455C230.696 233.881 230.805 234.401 230.805 235.014V239.855H229.013V235.292C229.013 234.78 228.881 234.383 228.617 234.099C228.356 233.812 227.99 233.668 227.518 233.668C227.202 233.668 226.918 233.738 226.667 233.876C226.42 234.011 226.225 234.208 226.083 234.465C225.944 234.722 225.875 235.034 225.875 235.4ZM236.486 236.45H238.149L239.134 237.727L239.837 238.558L241.525 240.726H239.743L238.595 239.271L238.105 238.578L236.486 236.45ZM241.767 234.787C241.767 235.879 241.562 236.814 241.153 237.593C240.748 238.368 240.193 238.962 239.49 239.375C238.791 239.787 237.997 239.993 237.11 239.993C236.222 239.993 235.427 239.787 234.724 239.375C234.025 238.959 233.471 238.363 233.061 237.588C232.656 236.809 232.453 235.876 232.453 234.787C232.453 233.695 232.656 232.761 233.061 231.985C233.471 231.207 234.025 230.611 234.724 230.199C235.427 229.786 236.222 229.58 237.11 229.58C237.997 229.58 238.791 229.786 239.49 230.199C240.193 230.611 240.748 231.207 241.153 231.985C241.562 232.761 241.767 233.695 241.767 234.787ZM239.921 234.787C239.921 234.018 239.801 233.37 239.56 232.842C239.322 232.31 238.992 231.91 238.57 231.639C238.148 231.365 237.661 231.228 237.11 231.228C236.559 231.228 236.072 231.365 235.65 231.639C235.228 231.91 234.896 232.31 234.655 232.842C234.417 233.37 234.299 234.018 234.299 234.787C234.299 235.556 234.417 236.206 234.655 236.737C234.896 237.265 235.228 237.666 235.65 237.939C236.072 238.21 236.559 238.345 237.11 238.345C237.661 238.345 238.148 238.21 238.57 237.939C238.992 237.666 239.322 237.265 239.56 236.737C239.801 236.206 239.921 235.556 239.921 234.787ZM243.517 239.855V229.719H245.353V238.316H249.817V239.855H243.517Z" fill="white"/>
</g>
<defs>
<clipPath id="clip0_2001_3901">
<rect width="140.175" height="295.006" fill="white" transform="translate(0.374542 -19.2529)"/>
</clipPath>
<clipPath id="clip1_2001_3901">
<rect width="140.175" height="295.006" fill="white" transform="translate(150.197 -19.2529)"/>
</clipPath>
</defs>
</svg>
