<svg width="157" height="36" viewBox="0 0 157 36" fill="none" xmlns="http://www.w3.org/2000/svg">
<path d="M44.268 14.7909C43.1645 14.0381 40.2658 13.7166 38.1586 14.2924C38.0455 12.1648 36.9622 10.3716 34.9822 8.80687L34.2495 8.30837L33.761 9.05646C32.8008 10.5337 32.3959 12.5026 32.5391 14.2924C32.6522 15.3952 33.0303 16.6344 33.761 17.5337C31.0182 19.1465 28.4894 18.7803 17.2919 18.7803H0.00382783C-0.0463583 21.3433 0.359814 26.2728 3.45262 30.2859C3.79455 30.7294 4.1686 31.1581 4.57545 31.5711C7.0901 34.1233 10.8895 35.9952 16.5706 36C25.2381 36.0081 32.6636 31.2591 37.181 19.778C38.6672 19.8024 42.5911 20.0479 44.5115 16.2871C44.5584 16.224 45 15.2901 45 15.2901L44.268 14.7916V14.7909ZM11.2863 12.4476H6.42497V17.375H11.2863V12.4476ZM17.5663 12.4476H12.7049V17.375H17.5663V12.4476ZM23.8469 12.4476H18.9855V17.375H23.8469V12.4476ZM30.1275 12.4476H25.2662V17.375H30.1275V12.4476ZM5.00571 12.4476H0.144349V17.375H5.00571V12.4476ZM11.2863 6.22415H6.42497V11.1515H11.2863V6.22415ZM17.5663 6.22415H12.7049V11.1515H17.5663V6.22415ZM23.8469 6.22415H18.9855V11.1515H23.8469V6.22415ZM23.8469 0H18.9855V4.92737H23.8469V0Z" fill="#1D63ED"/>
<path d="M155.998 28.4384C155.998 29.7229 155 30.7315 153.702 30.7315C152.405 30.7315 151.393 29.7229 151.393 28.4384C151.393 27.1538 152.417 26.173 153.702 26.173C154.987 26.173 155.998 27.1816 155.998 28.4384ZM151.967 28.4384C151.967 29.4469 152.705 30.2479 153.716 30.2479C154.727 30.2479 155.425 29.4469 155.425 28.4526C155.425 27.4583 154.7 26.6288 153.704 26.6288C152.707 26.6288 151.968 27.4441 151.968 28.4384H151.967ZM153.348 29.6266H152.829V27.3613C153.033 27.3199 153.32 27.2921 153.689 27.2921C154.113 27.2921 154.303 27.3613 154.468 27.4583C154.591 27.5546 154.687 27.7343 154.687 27.9554C154.687 28.2044 154.495 28.3977 154.223 28.4804V28.5082C154.44 28.5903 154.564 28.7564 154.632 29.0603C154.7 29.4055 154.741 29.5439 154.797 29.6266H154.236C154.168 29.5439 154.126 29.337 154.059 29.0739C154.018 28.8256 153.881 28.7151 153.594 28.7151H153.348V29.6273V29.6266ZM153.361 28.342H153.606C153.893 28.342 154.126 28.2457 154.126 28.0111C154.126 27.8035 153.976 27.6645 153.647 27.6645C153.511 27.6645 153.415 27.6787 153.361 27.6937V28.342Z" fill="white"/>
<path d="M67.9482 5.51243C67.6268 5.19501 67.241 5.03359 66.7787 5.03359C66.3164 5.03359 65.9192 5.19501 65.6099 5.51243C65.2999 5.82984 65.1482 6.23678 65.1482 6.72172V14.8198C63.5581 13.4912 61.723 12.8211 59.6356 12.8211C57.2094 12.8211 55.1348 13.7069 53.4157 15.4845C51.6967 17.2561 50.8433 19.3993 50.8433 21.9128C50.8433 24.4263 51.7028 26.5635 53.4157 28.3411C55.1348 30.1127 57.204 31.0045 59.6356 31.0045C62.0672 31.0045 64.1136 30.1188 65.8554 28.3411C67.5745 26.5872 68.4279 24.4447 68.4279 21.9128V6.72172C68.4279 6.23678 68.2702 5.82984 67.9482 5.51243ZM64.7155 24.1035V24.1157C64.429 24.8041 64.0371 25.4084 63.5406 25.9232C63.0441 26.4441 62.459 26.851 61.7927 27.1562C61.1204 27.4614 60.4072 27.6113 59.6416 27.6113C58.8761 27.6113 58.1454 27.4614 57.4731 27.1562C56.8008 26.851 56.2217 26.4441 55.7312 25.9293C55.2401 25.4145 54.8489 24.8102 54.5624 24.1218C54.2759 23.4273 54.1297 22.6914 54.1297 21.9128C54.1297 21.1342 54.2759 20.3983 54.5624 19.7038C54.8489 19.0093 55.2408 18.4111 55.7312 17.8963C56.2224 17.3815 56.8068 16.9746 57.4731 16.6694C58.1454 16.3642 58.8647 16.2143 59.6416 16.2143C60.4186 16.2143 61.1204 16.3642 61.7927 16.6694C62.4651 16.9746 63.0441 17.3815 63.5406 17.9024C64.0371 18.4233 64.429 19.0276 64.7155 19.7099C65.002 20.3983 65.1482 21.1288 65.1482 21.9067C65.1482 22.6846 65.002 23.4212 64.7155 24.1035Z" fill="white"/>
<path d="M140.588 18.4237C140.161 17.3459 139.511 16.3706 138.658 15.4964L138.646 15.4903C136.91 13.7187 134.834 12.8269 132.427 12.8269C130.019 12.8269 127.925 13.7126 126.206 15.4903C124.487 17.2618 123.634 19.4051 123.634 21.9186C123.634 24.4321 124.494 26.5692 126.206 28.3469C127.925 30.1184 129.995 31.0103 132.427 31.0103C134.635 31.0103 136.547 30.2744 138.173 28.802C138.487 28.4669 138.646 28.06 138.646 27.5866C138.646 27.1132 138.495 26.6947 138.184 26.3773C137.875 26.0599 137.483 25.8985 137.015 25.8985C136.607 25.9107 136.244 26.0484 135.934 26.3237C135.443 26.7544 134.911 27.084 134.333 27.2997C133.754 27.5154 133.122 27.6232 132.433 27.6232C131.825 27.6232 131.24 27.5276 130.685 27.3302C130.129 27.1329 129.61 26.8629 129.148 26.5102C128.679 26.1569 128.277 25.7384 127.932 25.2413C127.587 24.7502 127.324 24.2056 127.149 23.6074H139.583C140.044 23.6074 140.43 23.446 140.752 23.1286C141.074 22.8111 141.232 22.4042 141.232 21.9193C141.232 20.6625 141.014 19.4953 140.589 18.4237H140.588ZM127.136 20.2311C127.306 19.6384 127.563 19.0937 127.908 18.5973C128.253 18.1062 128.662 17.6817 129.129 17.3283C129.603 16.9749 130.117 16.7057 130.684 16.5083C131.25 16.3109 131.829 16.2153 132.427 16.2153C133.024 16.2153 133.601 16.3109 134.162 16.5083C134.723 16.7057 135.239 16.9749 135.7 17.3283C136.168 17.6817 136.577 18.1001 136.921 18.5973C137.272 19.0883 137.536 19.6329 137.717 20.2311H127.135H127.136Z" fill="white"/>
<path d="M155.868 13.9639C155.576 13.6709 155.207 13.443 154.763 13.2755C154.319 13.1079 153.834 12.994 153.302 12.9282C152.776 12.8624 152.278 12.8326 151.817 12.8326C150.77 12.8326 149.788 13.0062 148.865 13.3534C147.941 13.7007 147.088 14.1972 146.304 14.8435V14.5207C146.304 14.0541 146.146 13.6587 145.824 13.3297C145.504 13.0008 145.123 12.8332 144.674 12.8332C144.224 12.8332 143.826 13.0008 143.505 13.3297C143.183 13.6587 143.025 14.0602 143.025 14.5207V29.3232C143.025 29.7898 143.183 30.1852 143.505 30.5141C143.826 30.8431 144.211 31.0106 144.674 31.0106C145.136 31.0106 145.509 30.8431 145.824 30.5141C146.146 30.1852 146.304 29.7837 146.304 29.3232V21.9189C146.304 21.1287 146.45 20.3867 146.737 19.6922C147.023 18.9977 147.415 18.3995 147.912 17.8847C148.41 17.37 148.994 16.963 149.66 16.6693C150.332 16.3702 151.046 16.2203 151.812 16.2203C152.578 16.2203 153.302 16.358 153.963 16.6273C154.226 16.7473 154.454 16.807 154.653 16.807C154.881 16.807 155.097 16.765 155.296 16.6754C155.494 16.5859 155.67 16.4659 155.816 16.3106C155.963 16.1552 156.079 15.9755 156.167 15.7659C156.255 15.5625 156.302 15.3407 156.302 15.1013C156.302 14.6346 156.155 14.2575 155.863 13.9639H155.869H155.868Z" fill="white"/>
<path d="M87.2271 18.4295C86.8003 17.3579 86.1629 16.3765 85.3041 15.4907C83.5683 13.7192 81.493 12.8273 79.0842 12.8273C76.6755 12.8273 74.5834 13.7131 72.8644 15.4907C71.1454 17.2623 70.2926 19.4055 70.2926 21.919C70.2926 24.4326 71.1521 26.5697 72.8644 28.3473C74.5834 30.1189 76.6527 31.0108 79.0842 31.0108C81.5158 31.0108 83.5623 30.125 85.3041 28.3473C87.0231 26.5934 87.8766 24.4509 87.8766 21.919C87.8645 20.6623 87.6484 19.5011 87.2277 18.4295H87.2271ZM84.1641 24.1036V24.1158C83.8776 24.8042 83.4858 25.4085 82.9893 25.9233C82.4927 26.4442 81.9077 26.8511 81.2414 27.1564C80.5751 27.4616 79.8558 27.6114 79.0903 27.6114C78.3247 27.6114 77.594 27.4616 76.9217 27.1564C76.2494 26.8511 75.6704 26.4442 75.1799 25.9294C74.6887 25.4146 74.2976 24.8103 74.0111 24.1219C73.7246 23.4274 73.5783 22.6915 73.5783 21.9129C73.5783 21.1343 73.7246 20.3984 74.0111 19.7039C74.2976 19.0094 74.6894 18.4112 75.1799 17.8964C75.671 17.3816 76.2554 16.9747 76.9217 16.6695C77.594 16.3643 78.3133 16.2144 79.0903 16.2144C79.8673 16.2144 80.5691 16.3643 81.2414 16.6695C81.9137 16.9747 82.4927 17.3816 82.9893 17.9025C83.4858 18.4234 83.8776 19.0277 84.1641 19.71C84.4506 20.3984 84.5969 21.1289 84.5969 21.9068C84.5969 22.6848 84.4506 23.4213 84.1641 24.1036Z" fill="white"/>
<path d="M122.394 14.5148C122.394 14.2876 122.347 14.0719 122.26 13.8684C122.172 13.665 122.055 13.4798 121.909 13.3238C121.763 13.1685 121.588 13.0423 121.389 12.9589C121.191 12.8755 120.974 12.8273 120.746 12.8273C120.419 12.8273 120.126 12.9114 119.869 13.0851L110.481 19.4001V6.73408C110.481 6.25525 110.324 5.85441 110.002 5.52479C109.681 5.19584 109.301 5.02832 108.851 5.02832C108.401 5.02832 108.003 5.19584 107.681 5.52479C107.36 5.85373 107.202 6.25525 107.202 6.73408V29.2996C107.202 29.7662 107.36 30.1678 107.681 30.5028C108.003 30.8378 108.389 31.0054 108.851 31.0054C109.313 31.0054 109.687 30.8378 110.002 30.5028C110.324 30.1678 110.481 29.7662 110.481 29.2996V23.4397L112.399 22.1409L119.653 30.5625C119.946 30.8555 120.314 30.9993 120.752 30.9993C120.981 30.9993 121.197 30.9572 121.395 30.8677C121.594 30.7836 121.77 30.6581 121.915 30.5028C122.061 30.3475 122.178 30.1678 122.266 29.9582C122.354 29.7547 122.4 29.5329 122.4 29.3118C122.4 28.8689 122.249 28.4735 121.944 28.1269L115.192 20.2682L121.768 15.8509C122.189 15.5579 122.394 15.1089 122.394 14.5039V14.5161L122.394 14.5148Z" fill="white"/>
<path d="M94.5988 17.8848C95.1013 17.37 95.6864 16.9631 96.3587 16.6694C97.031 16.3703 97.7443 16.2204 98.5098 16.2204C99.1996 16.2204 99.837 16.3404 100.427 16.5792C101.012 16.8186 101.573 17.172 102.105 17.6325C102.42 17.8895 102.777 18.0211 103.174 18.0211C103.648 18.0211 104.034 17.8597 104.344 17.5362C104.654 17.2126 104.806 16.8057 104.806 16.3208C104.806 15.8358 104.618 15.3868 104.239 15.0403C102.625 13.5678 100.714 12.8313 98.5098 12.8313C96.0836 12.8313 94.009 13.717 92.29 15.4947C90.571 17.2662 89.7182 19.4094 89.7182 21.923C89.7182 24.4365 90.5777 26.5736 92.29 28.3513C94.009 30.1228 96.0783 31.0147 98.5098 31.0147C100.708 31.0147 102.619 30.2788 104.239 28.8057C104.583 28.4469 104.759 28.0339 104.759 27.555C104.759 27.0762 104.607 26.6632 104.298 26.3458C103.988 26.0283 103.596 25.8669 103.129 25.8669C102.732 25.8791 102.386 25.9985 102.094 26.2257C101.568 26.6923 101.019 27.0396 100.428 27.2729C99.8437 27.5062 99.2063 27.6202 98.5105 27.6202C97.7449 27.6202 97.0317 27.4703 96.3594 27.1712C95.6871 26.8721 95.1027 26.4651 94.5994 25.9564C94.0969 25.4478 93.699 24.8374 93.4125 24.149C93.126 23.4544 92.9797 22.7125 92.9797 21.9223C92.9797 21.1322 93.126 20.3902 93.4125 19.6957C93.699 19.0012 94.0962 18.4029 94.5994 17.8882V17.8821L94.5988 17.8848Z" fill="white"/>
</svg>
