<svg width="178" height="35" viewBox="0 0 178 35" fill="none" xmlns="http://www.w3.org/2000/svg">
<path d="M57.0245 11.2999C57.9559 11.3017 58.8744 11.5172 59.7095 11.9297C60.5445 12.3422 61.2738 12.9407 61.8411 13.6792C61.8612 13.706 61.8866 13.7283 61.9157 13.7449C61.9448 13.7615 61.9769 13.7719 62.0102 13.7756C62.0435 13.7793 62.0772 13.7761 62.1092 13.7662C62.1412 13.7563 62.1708 13.74 62.1963 13.7183L64.2245 12.1025C64.2504 12.0818 64.272 12.0561 64.2881 12.0271C64.3041 11.998 64.3142 11.966 64.3178 11.933C64.3214 11.9 64.3185 11.8666 64.3092 11.8348C64.2999 11.8029 64.2844 11.7732 64.2636 11.7474C63.4003 10.6273 62.2913 9.72051 61.022 9.09679C59.7527 8.47308 58.3571 8.14915 56.9428 8.14998C51.6467 8.14998 47.3522 12.7133 47.3522 18.3242C47.3522 23.9351 51.6609 28.4984 56.9428 28.4984C58.3569 28.5032 59.753 28.1813 61.0222 27.5579C62.2915 26.9346 63.3995 26.0265 64.26 24.9046C64.2816 24.8789 64.2977 24.8491 64.3072 24.817C64.3168 24.7848 64.3197 24.7511 64.3157 24.7178C64.3117 24.6845 64.3009 24.6524 64.284 24.6235C64.2671 24.5945 64.2444 24.5693 64.2174 24.5495L62.1927 22.9514C62.1669 22.9306 62.1371 22.9151 62.1053 22.9058C62.0734 22.8965 62.04 22.8936 62.007 22.8972C61.974 22.9008 61.942 22.911 61.913 22.927C61.8839 22.943 61.8582 22.9646 61.8375 22.9905C61.2673 23.7242 60.5377 24.3187 59.7039 24.7291C58.8701 25.1394 57.9538 25.3549 57.0245 25.3592C53.4049 25.3592 50.5739 22.2696 50.5739 18.3313C50.5739 14.393 53.4049 11.2999 57.0245 11.2999Z" fill="white"/>
<path d="M66.8776 7.57097H69.4209C69.4878 7.57097 69.5519 7.59753 69.5992 7.64482C69.6465 7.6921 69.6731 7.75623 69.6731 7.82311V27.9869C69.6731 28.0528 69.6469 28.1161 69.6003 28.1627C69.5536 28.2093 69.4904 28.2355 69.4245 28.2355H66.8812C66.8143 28.2355 66.7502 28.2089 66.7029 28.1616C66.6556 28.1144 66.629 28.0502 66.629 27.9833V7.82311C66.6285 7.79016 66.6346 7.75746 66.6469 7.72688C66.6592 7.69631 66.6774 7.66849 66.7005 7.64503C66.7237 7.62157 66.7513 7.60294 66.7817 7.59022C66.8121 7.57751 66.8447 7.57097 66.8776 7.57097Z" fill="white"/>
<path d="M78.3399 14.5456C74.969 14.5456 71.559 16.932 71.559 21.4953C71.559 25.5046 74.4753 28.5303 78.3399 28.5303C82.2045 28.5303 85.1492 25.5046 85.1492 21.4953C85.1492 17.486 82.2223 14.5456 78.3399 14.5456ZM82.0802 21.4953C82.0802 23.8107 80.4711 25.5579 78.3399 25.5579C76.2087 25.5579 74.6316 23.8107 74.6316 21.4953C74.6316 19.1799 76.2264 17.5179 78.3399 17.5179C80.4534 17.5179 82.0802 19.2261 82.0802 21.4953Z" fill="white"/>
<path d="M98.8568 14.8366H96.3135C96.2806 14.8361 96.2478 14.8422 96.2173 14.8545C96.1867 14.8668 96.1588 14.885 96.1354 14.9082C96.1119 14.9313 96.0933 14.9588 96.0806 14.9892C96.0678 15.0196 96.0613 15.0523 96.0613 15.0852V21.8325C96.0613 24.4675 94.2427 25.4015 92.6833 25.4015C91.3051 25.4015 89.9162 24.361 89.9162 22.0349V15.0852C89.9162 15.0523 89.9097 15.0196 89.897 14.9892C89.8843 14.9588 89.8656 14.9313 89.8422 14.9082C89.8187 14.885 89.7909 14.8668 89.7603 14.8545C89.7297 14.8422 89.697 14.8361 89.664 14.8366H87.1208C87.0548 14.8366 86.9916 14.8628 86.945 14.9094C86.8983 14.956 86.8721 15.0193 86.8721 15.0852V22.3652C86.8721 26.3603 88.6801 28.5585 91.9658 28.5585C93.1593 28.5585 95.0916 27.8731 95.8162 26.3603L96.0613 26.41V27.9868C96.0613 28.0536 96.0879 28.1178 96.1352 28.165C96.1825 28.2123 96.2466 28.2389 96.3135 28.2389H98.8568C98.9237 28.2389 98.9878 28.2123 99.0351 28.165C99.0824 28.1178 99.109 28.0536 99.109 27.9868V15.0852C99.109 15.0523 99.1024 15.0196 99.0897 14.9892C99.077 14.9588 99.0584 14.9313 99.0349 14.9082C99.0114 14.885 98.9836 14.8668 98.953 14.8545C98.9224 14.8422 98.8897 14.8361 98.8568 14.8366Z" fill="white"/>
<path d="M114.475 7.57097H111.929C111.896 7.57097 111.863 7.57751 111.833 7.59022C111.802 7.60294 111.775 7.62157 111.751 7.64503C111.728 7.66849 111.71 7.69631 111.698 7.72688C111.686 7.75746 111.679 7.79016 111.68 7.82311V16.8361L111.524 16.5875C110.749 15.341 109.083 14.5349 107.279 14.5349C104.167 14.5349 101.02 16.932 101.02 21.513C101.02 25.5082 103.723 28.5196 107.304 28.5196C108.668 28.5196 110.589 27.9727 111.524 26.4386L111.68 26.1829V27.9869C111.679 28.0198 111.686 28.0526 111.698 28.0831C111.71 28.1137 111.728 28.1415 111.751 28.165C111.775 28.1884 111.802 28.2071 111.833 28.2198C111.863 28.2325 111.896 28.239 111.929 28.239H114.475C114.508 28.239 114.541 28.2325 114.571 28.2198C114.602 28.2071 114.629 28.1884 114.652 28.165C114.676 28.1415 114.694 28.1137 114.706 28.0831C114.718 28.0526 114.725 28.0198 114.724 27.9869V7.82311C114.725 7.79016 114.718 7.75746 114.706 7.72688C114.694 7.69631 114.676 7.66849 114.652 7.64503C114.629 7.62157 114.602 7.60294 114.571 7.59022C114.541 7.57751 114.508 7.57097 114.475 7.57097ZM111.634 21.4953C111.651 22.0115 111.565 22.526 111.382 23.009C111.199 23.492 110.922 23.9339 110.567 24.3091C110.211 24.6842 109.785 24.9853 109.313 25.1948C108.841 25.4042 108.332 25.518 107.815 25.5295C105.734 25.5295 104.103 23.7539 104.103 21.4953C104.103 19.2367 105.734 17.5179 107.815 17.5179C108.847 17.544 109.826 17.9768 110.539 18.7219C111.253 19.4671 111.642 20.464 111.623 21.4953H111.634Z" fill="white"/>
<path d="M118.286 14.8366H120.83C120.896 14.8366 120.959 14.8628 121.006 14.9094C121.052 14.956 121.078 15.0192 121.078 15.0852V27.9867C121.078 28.0527 121.052 28.1159 121.006 28.1625C120.959 28.2091 120.896 28.2353 120.83 28.2353H118.286C118.22 28.2353 118.155 28.2088 118.108 28.1615C118.061 28.1142 118.034 28.0501 118.034 27.9832V15.0852C118.035 15.0189 118.062 14.9557 118.109 14.9092C118.157 14.8627 118.22 14.8366 118.286 14.8366Z" fill="white"/>
<path d="M119.569 7.97973C119.305 7.97406 119.043 8.02103 118.798 8.11789C118.554 8.21475 118.33 8.35955 118.142 8.5438C117.954 8.72804 117.804 8.94802 117.702 9.19082C117.6 9.43363 117.548 9.69437 117.548 9.95776C117.553 10.4883 117.769 10.995 118.148 11.3665C118.527 11.7381 119.038 11.9441 119.569 11.9393C119.83 11.9426 120.09 11.8937 120.333 11.7955C120.575 11.6972 120.796 11.5515 120.981 11.367C121.167 11.1825 121.314 10.9628 121.413 10.7208C121.513 10.4788 121.563 10.2194 121.561 9.95776C121.566 9.69559 121.517 9.43523 121.418 9.19233C121.32 8.94943 121.173 8.72899 120.987 8.54425C120.801 8.35951 120.579 8.21427 120.335 8.11726C120.092 8.02025 119.831 7.97347 119.569 7.97973Z" fill="white"/>
<path d="M131.554 14.5456C130.438 14.5456 128.456 15.1457 127.7 16.7438L127.455 16.6941V15.0854C127.455 15.0524 127.448 15.0198 127.435 14.9894C127.423 14.959 127.404 14.9314 127.381 14.9083C127.357 14.8852 127.329 14.867 127.299 14.8547C127.268 14.8424 127.235 14.8363 127.202 14.8368H124.659C124.593 14.8368 124.53 14.863 124.483 14.9096C124.437 14.9562 124.411 15.0194 124.411 15.0854V27.9869C124.41 28.0199 124.416 28.0526 124.428 28.0831C124.441 28.1137 124.459 28.1415 124.482 28.165C124.505 28.1885 124.533 28.2071 124.563 28.2198C124.594 28.2325 124.626 28.2391 124.659 28.2391H127.202C127.269 28.2391 127.334 28.2125 127.381 28.1652C127.428 28.1179 127.455 28.0538 127.455 27.9869V21.2396C127.455 18.6259 129.273 17.6884 130.833 17.6884C132.211 17.6884 133.6 18.7218 133.6 21.0265V27.9869C133.6 28.0538 133.626 28.1179 133.674 28.1652C133.721 28.2125 133.785 28.2391 133.852 28.2391H136.402C136.469 28.2391 136.533 28.2125 136.581 28.1652C136.628 28.1179 136.654 28.0538 136.654 27.9869V20.7105C136.647 16.7367 134.836 14.5456 131.554 14.5456Z" fill="white"/>
<path d="M151.846 14.8371H149.303C149.27 14.8366 149.238 14.8427 149.207 14.855C149.176 14.8673 149.149 14.8855 149.125 14.9086C149.102 14.9318 149.083 14.9593 149.07 14.9897C149.058 15.0201 149.051 15.0527 149.051 15.0857V16.8613L148.898 16.6127C148.12 15.3662 146.454 14.5601 144.636 14.5601C141.528 14.5601 138.377 16.9572 138.377 21.5382C138.377 25.5334 141.08 28.5448 144.664 28.5448C146.025 28.5448 147.946 27.9979 148.884 26.4638L149.037 26.2081V27.9872C149.037 28.0541 149.063 28.1182 149.111 28.1655C149.158 28.2128 149.222 28.2394 149.289 28.2394H151.832C151.865 28.2394 151.898 28.2328 151.928 28.2201C151.959 28.2074 151.986 28.1888 152.009 28.1653C152.032 28.1419 152.051 28.114 152.063 28.0835C152.075 28.0529 152.081 28.0202 152.081 27.9872V15.0857C152.081 15.0221 152.057 14.961 152.013 14.9147C151.97 14.8685 151.91 14.8407 151.846 14.8371ZM149.005 21.4956C149.022 22.0128 148.936 22.5281 148.752 23.0118C148.568 23.4955 148.29 23.9378 147.934 24.3131C147.578 24.6884 147.15 24.9893 146.677 25.1981C146.203 25.407 145.693 25.5197 145.176 25.5298C143.094 25.5298 141.467 23.7542 141.467 21.4956C141.467 19.2371 143.094 17.5183 145.176 17.5183C146.21 17.5406 147.192 17.9718 147.909 18.7174C148.625 19.4629 149.017 20.462 148.998 21.4956H149.005Z" fill="white"/>
<path d="M163.451 14.8827C162.871 14.6477 162.251 14.5271 161.625 14.5276C159.934 14.5276 158.705 15.5396 158.073 17.4573L157.846 17.4253V15.0851C157.846 15.0521 157.839 15.0195 157.826 14.9891C157.814 14.9587 157.795 14.9312 157.772 14.908C157.748 14.8849 157.72 14.8667 157.69 14.8544C157.659 14.8421 157.627 14.836 157.594 14.8365H155.05C155.017 14.836 154.985 14.8421 154.954 14.8544C154.923 14.8667 154.896 14.8849 154.872 14.908C154.849 14.9312 154.83 14.9587 154.817 14.9891C154.805 15.0195 154.798 15.0521 154.798 15.0851V27.9867C154.798 28.0535 154.825 28.1177 154.872 28.1649C154.919 28.2122 154.983 28.2388 155.05 28.2388H157.622C157.655 28.2388 157.688 28.2322 157.718 28.2195C157.748 28.2068 157.776 28.1882 157.799 28.1647C157.822 28.1413 157.84 28.1134 157.853 28.0829C157.865 28.0523 157.871 28.0196 157.871 27.9867V23.5831C157.871 18.3274 159.97 17.5461 161.224 17.5461C161.753 17.5474 162.276 17.6562 162.762 17.8657C162.796 17.8815 162.833 17.8898 162.87 17.8898C162.908 17.8898 162.945 17.8815 162.978 17.8657C163.011 17.8485 163.039 17.8243 163.062 17.7949C163.084 17.7654 163.099 17.7313 163.106 17.6952L163.611 15.1703C163.623 15.1112 163.614 15.0496 163.584 14.9968C163.555 14.944 163.508 14.9035 163.451 14.8827Z" fill="white"/>
<path d="M177.564 14.9467C177.541 14.9122 177.51 14.884 177.473 14.8647C177.436 14.8455 177.395 14.8358 177.354 14.8366H174.615C174.565 14.8372 174.516 14.8526 174.474 14.8811C174.432 14.9095 174.4 14.9496 174.381 14.9964L171.067 23.5833L167.721 14.9964C167.702 14.9496 167.67 14.9095 167.628 14.8811C167.586 14.8526 167.537 14.8372 167.486 14.8366H164.694C164.654 14.8364 164.613 14.8463 164.577 14.8656C164.542 14.8848 164.511 14.9127 164.488 14.9467C164.465 14.9807 164.451 15.0199 164.446 15.0608C164.442 15.1017 164.448 15.143 164.464 15.1811L169.436 27.3902L166.691 34.5246C166.673 34.5633 166.666 34.6058 166.67 34.6481C166.673 34.6903 166.687 34.7311 166.71 34.7665C166.734 34.8019 166.766 34.8308 166.803 34.8506C166.841 34.8704 166.883 34.8804 166.925 34.8797H169.589C169.639 34.8799 169.688 34.8647 169.73 34.8361C169.771 34.8075 169.803 34.767 169.82 34.7199L177.585 15.1882C177.603 15.1496 177.61 15.107 177.606 15.0646C177.602 15.0223 177.588 14.9817 177.564 14.9467Z" fill="white"/>
<path d="M34.7815 10.4828C33.8625 7.60181 32.056 5.08501 29.6203 3.29215C27.1846 1.49928 24.2443 0.522118 21.2197 0.500327C18.6625 0.485667 16.1497 1.16788 13.9511 2.47368C11.7526 3.77947 9.9515 5.65948 8.74134 7.91171C6.5172 8.3102 4.47831 9.40795 2.92143 11.0452C1.36455 12.6824 0.370937 14.7737 0.0852101 17.0146C-0.200517 19.2555 0.236555 21.5291 1.33281 23.5044C2.42907 25.4798 4.12729 27.0538 6.18031 27.9974L6.44671 28.1181H6.46447V25.0996C5.0561 24.2353 3.95354 22.952 3.31132 21.4297C2.66911 19.9074 2.51943 18.2224 2.88326 16.6108C3.2471 14.9992 4.10621 13.5418 5.34019 12.4428C6.57417 11.3439 8.12116 10.6585 9.76433 10.4828L10.5103 10.4047L10.8371 9.73349C11.7649 7.76756 13.2349 6.10731 15.0741 4.94791C16.9133 3.78852 19.0454 3.17816 21.2197 3.1886C23.8105 3.20687 26.3208 4.09061 28.3514 5.69929C30.3821 7.30796 31.8164 9.54921 32.4265 12.0666L32.6822 13.0823H33.7478C35.4657 13.1175 37.1016 13.8229 38.3063 15.0478C39.5109 16.2727 40.1887 17.92 40.1948 19.6378C40.1948 22.1414 38.7491 24.1905 36.2875 25.2274V28.0897L36.4651 28.0329C40.4221 26.7367 42.8802 23.5193 42.8802 19.6378C42.8639 17.3913 42.0348 15.2265 40.5461 13.5437C39.0574 11.8608 37.0097 10.7735 34.7815 10.4828Z" fill="#3847BE"/>
<path d="M16.0122 27.7706L16.6019 28.3601C16.6178 28.3765 16.6286 28.3972 16.6329 28.4196C16.6373 28.442 16.635 28.4652 16.6263 28.4864C16.6176 28.5075 16.6029 28.5256 16.5841 28.5385C16.5652 28.5514 16.543 28.5585 16.5202 28.559H11.867C11.3018 28.559 10.7597 28.3345 10.36 27.9349C9.9603 27.5353 9.73576 26.9934 9.73576 26.4283V17.394C9.73576 17.3629 9.72341 17.3331 9.70143 17.3111C9.67945 17.2891 9.64963 17.2768 9.61855 17.2768H8.62397C8.60083 17.277 8.57813 17.2704 8.55875 17.2578C8.53936 17.2451 8.52415 17.227 8.51503 17.2058C8.50592 17.1845 8.5033 17.161 8.50752 17.1383C8.51173 17.1155 8.52259 17.0945 8.53872 17.0779L12.4886 13.129C12.4995 13.1179 12.5125 13.1091 12.5268 13.1031C12.5412 13.0971 12.5565 13.0941 12.5721 13.0941C12.5876 13.0941 12.603 13.0971 12.6173 13.1031C12.6317 13.1091 12.6446 13.1179 12.6556 13.129L16.6019 17.0779C16.6178 17.0943 16.6286 17.115 16.6329 17.1374C16.6373 17.1598 16.635 17.183 16.6263 17.2041C16.6176 17.2253 16.6029 17.2434 16.5841 17.2563C16.5652 17.2692 16.543 17.2763 16.5202 17.2768H15.5114C15.48 17.2768 15.4498 17.289 15.4272 17.3109C15.4047 17.3328 15.3916 17.3626 15.3906 17.394V26.272C15.3921 26.834 15.6155 27.3726 16.0122 27.7706Z" fill="#3847BE"/>
<path d="M24.7396 27.7701L25.3328 28.3596C25.3489 28.3762 25.3598 28.3972 25.364 28.42C25.3682 28.4427 25.3656 28.4662 25.3565 28.4875C25.3474 28.5087 25.3322 28.5268 25.3128 28.5395C25.2934 28.5521 25.2707 28.5587 25.2476 28.5585H20.605C20.0398 28.5585 19.4977 28.334 19.098 27.9344C18.6983 27.5348 18.4738 26.9929 18.4738 26.4278V19.6769C18.4738 19.6455 18.4616 19.6153 18.4397 19.5928C18.4178 19.5702 18.388 19.5571 18.3566 19.5562H17.3513C17.3285 19.5557 17.3063 19.5486 17.2874 19.5357C17.2686 19.5228 17.2539 19.5046 17.2452 19.4835C17.2366 19.4624 17.2342 19.4392 17.2386 19.4168C17.2429 19.3943 17.2537 19.3737 17.2696 19.3573L21.216 15.4154C21.2269 15.4044 21.2399 15.3956 21.2542 15.3896C21.2685 15.3836 21.2839 15.3805 21.2994 15.3805C21.315 15.3805 21.3304 15.3836 21.3447 15.3896C21.359 15.3956 21.372 15.4044 21.3829 15.4154L25.3328 19.3502C25.3489 19.3668 25.3598 19.3878 25.364 19.4105C25.3682 19.4333 25.3656 19.4568 25.3565 19.478C25.3474 19.4993 25.3322 19.5174 25.3128 19.53C25.2934 19.5427 25.2707 19.5493 25.2476 19.5491H24.2388C24.2074 19.55 24.1775 19.5631 24.1557 19.5857C24.1338 19.6082 24.1215 19.6384 24.1216 19.6698V26.2715C24.122 26.8329 24.3441 27.3715 24.7396 27.7701Z" fill="#3847BE"/>
<path d="M33.4706 27.7701L34.0603 28.3596C34.0762 28.376 34.087 28.3967 34.0913 28.4191C34.0957 28.4415 34.0933 28.4647 34.0847 28.4859C34.076 28.507 34.0613 28.5251 34.0425 28.538C34.0236 28.5509 34.0014 28.5581 33.9786 28.5585H29.3218C28.7566 28.5585 28.2145 28.334 27.8148 27.9344C27.4151 27.5348 27.1906 26.9929 27.1906 26.4278V21.9426C27.1906 21.9115 27.1782 21.8817 27.1563 21.8597C27.1343 21.8378 27.1045 21.8254 27.0734 21.8254H26.0788C26.0552 21.8257 26.0321 21.8188 26.0125 21.8057C25.9929 21.7926 25.9777 21.7739 25.9688 21.7521C25.96 21.7302 25.958 21.7062 25.963 21.6832C25.9681 21.6601 25.9799 21.6392 25.9971 21.623L29.947 17.6776C29.9576 17.6666 29.9703 17.6579 29.9843 17.652C29.9984 17.646 30.0134 17.643 30.0287 17.643C30.0439 17.643 30.059 17.646 30.0731 17.652C30.0871 17.6579 30.0998 17.6666 30.1104 17.6776L34.0603 21.623C34.0774 21.6392 34.0893 21.6601 34.0943 21.6832C34.0994 21.7062 34.0973 21.7302 34.0885 21.7521C34.0797 21.7739 34.0645 21.7926 34.0449 21.8057C34.0253 21.8188 34.0022 21.8257 33.9786 21.8254H32.9662C32.9351 21.8254 32.9053 21.8378 32.8834 21.8597C32.8614 21.8817 32.849 21.9115 32.849 21.9426V26.2715C32.8504 26.8335 33.0739 27.3721 33.4706 27.7701Z" fill="#3847BE"/>
</svg>
