<svg width="199" height="38" viewBox="0 0 199 38" fill="none" xmlns="http://www.w3.org/2000/svg">
<path fill-rule="evenodd" clip-rule="evenodd" d="M85.0592 28.9609L85.6187 28.217C85.9917 28.031 85.9917 27.659 85.9917 27.287C85.9917 26.915 85.9917 26.543 85.4322 26.171C85.2457 25.799 84.8728 25.613 84.3133 25.427C82.4853 25.0273 80.6801 24.5306 78.9052 23.939L76.8538 22.637C76.1079 22.2651 75.7349 21.7071 75.3619 21.1491L74.8025 18.9171C74.8025 17.9871 74.9889 17.2431 75.3619 16.6851C75.7349 15.9412 76.2944 15.1972 77.0403 14.8252C77.5998 14.2672 78.5322 13.7092 79.2781 13.5232C81.0315 12.928 82.9329 12.928 84.6863 13.5232C85.4322 13.5232 86.1782 13.8952 86.9241 14.4532L88.416 15.9412C88.9755 16.4992 89.1619 17.2431 89.3484 17.8011L85.4322 18.9171C85.4322 18.3591 84.8728 17.8011 84.3133 17.4291C83.6677 16.9462 82.8825 16.6851 82.0755 16.6851C81.3093 16.5969 80.5337 16.7258 79.8376 17.0571L79.0917 17.8011L78.7187 18.7311L79.0917 19.6611L80.0241 20.4051L81.143 20.7771L82.2619 21.1491L85.9917 22.2651L88.416 23.567C88.9755 24.125 89.3484 24.683 89.5349 25.427C89.9079 25.799 89.9079 26.543 89.9079 27.287C89.9079 28.217 89.9079 29.1469 89.3484 29.7049C88.9755 30.4489 88.416 31.1929 87.6701 31.7509C86.9241 32.3089 85.9917 32.8669 85.0592 33.0529C84.1268 33.4249 83.0079 33.6109 81.889 33.6109C80.0241 33.6109 78.5322 33.2389 77.0403 32.3089C75.7349 31.3789 74.8025 30.4489 74.243 28.9609L77.9727 27.473C78.3457 28.403 78.9052 28.9609 79.6511 29.3329C80.2106 29.7049 81.143 29.8909 82.0755 29.8909C83.1944 29.8909 83.9403 29.5189 84.8728 28.9609H85.0592ZM103.708 33.0529L100.165 33.7969C99.0458 33.7969 98.1133 33.7969 97.1809 33.2389C96.2485 32.8669 95.5025 32.1229 94.943 31.1929C94.3836 30.2629 94.1971 28.7749 94.1971 26.915V17.6151H90.6538V13.3372H91.5863C92.7052 13.3372 93.8241 13.1512 94.3836 12.0352C94.7566 11.6632 94.7566 11.1052 94.7566 9.80326V8.31529H98.4863V13.3372H102.589V17.8011H98.2998V29.1469L99.2322 30.0769L100.724 30.2629H102.962L103.708 33.0529ZM116.762 17.0571L116.203 16.6851H115.27L114.711 16.4992C113.148 16.4671 111.627 16.9951 110.421 17.9871L109.303 19.4751C108.93 20.0331 108.93 20.7771 108.93 21.3351V33.7969H104.64V13.3372H107.997L108.743 15.7552C109.303 14.8252 110.048 14.2672 110.981 13.8952C112.066 13.2962 113.284 12.9766 114.524 12.9652L117.694 13.3372L116.576 17.0571H116.762ZM127.392 33.6109C125.335 33.6053 123.325 33.0049 121.603 31.8825C119.882 30.76 118.524 29.1637 117.694 27.287C117.135 25.985 116.762 24.683 116.762 23.195C116.764 21.191 117.346 19.2301 118.437 17.5476C119.529 15.865 121.084 14.5323 122.916 13.7092C125.369 12.7263 128.109 12.7263 130.562 13.7092C131.681 14.0812 132.8 14.8252 133.546 15.7552C134.478 16.6851 135.224 17.9871 135.597 19.4751C136.157 21.1491 136.343 22.823 136.343 25.055H121.238C121.238 25.799 121.611 26.357 122.17 26.915C122.976 28.1661 124.148 29.1401 125.527 29.7049L127.951 30.0769C129.889 30.0794 131.755 29.3482 133.173 28.031L135.784 30.4489C134.699 31.4291 133.432 32.1874 132.054 32.6809C130.749 33.2389 129.07 33.6109 127.392 33.6109ZM126.646 16.4992C126.086 16.4992 125.34 16.4992 124.781 16.8711C123.587 17.4094 122.604 18.3244 121.984 19.4751C121.611 20.0331 121.238 20.7771 121.238 21.3351H131.867C131.867 20.7771 131.867 20.2191 131.494 19.4751C131.071 18.5176 130.358 17.7161 129.455 17.1825C128.552 16.649 127.505 16.41 126.459 16.4992H126.646ZM158.349 13.3372V33.6109H154.992L154.246 30.8209C153.686 31.7509 152.754 32.4949 151.635 32.8669C150.516 33.4249 149.397 33.6109 148.278 33.6109C146.926 33.6374 145.583 33.387 144.332 32.8751C143.081 32.3632 141.949 31.6008 141.005 30.6349C139.046 28.6515 137.948 25.9791 137.948 23.195C137.948 20.411 139.046 17.7386 141.005 15.7552C141.962 14.8065 143.097 14.0553 144.345 13.5446C145.593 13.034 146.929 12.7739 148.278 12.7792C149.397 12.7792 150.516 13.1512 151.449 13.5232C152.568 13.8952 153.5 14.6392 154.246 15.3832L154.992 13.3372H158.535H158.349ZM148.278 30.0769L150.516 29.5189C151.262 29.1469 152.008 28.5889 152.381 28.031C153.594 26.7125 154.26 24.9843 154.246 23.195C154.225 21.4123 153.564 19.6962 152.381 18.3591C152.008 17.8011 151.262 17.2431 150.516 16.8711C149.792 16.5109 148.994 16.3234 148.185 16.3234C147.376 16.3234 146.578 16.5109 145.854 16.8711L143.989 18.3591C142.776 19.6775 142.11 21.4057 142.124 23.195C142.145 24.9778 142.807 26.6939 143.989 28.031L145.854 29.5189C146.6 29.8909 147.346 30.0769 148.278 30.0769ZM165.622 33.6109H161.519V13.1512H164.689L165.622 15.0112C165.995 14.4532 166.741 13.8952 167.486 13.5232C168.046 13.1512 168.978 12.7792 169.911 12.7792C171.552 12.8034 173.134 13.3951 174.386 14.4532L175.692 15.9412C176.065 15.1972 176.811 14.4532 177.743 13.7092C178.682 13.0879 179.787 12.7638 180.914 12.7792L183.338 13.1512C184.248 13.4441 185.085 13.9275 185.792 14.569C186.5 15.2106 187.062 15.9954 187.441 16.8711C187.814 17.9871 188 19.4751 188 21.1491V33.6109H184.27V21.1491C184.27 19.2891 183.711 18.1731 182.965 17.4291C182.405 16.8711 181.286 16.4992 180.168 16.4992C179.235 16.4992 178.303 16.8711 177.743 17.6151C177.184 18.3591 176.811 19.4751 176.811 21.1491V33.6109H172.895V21.1491C172.895 19.2891 172.522 18.1731 171.776 17.4291C171.03 16.8711 170.097 16.4992 168.978 16.4992C168.046 16.4992 167.3 16.8711 166.74 17.4291C165.995 18.1731 165.622 19.1031 165.622 20.4051V33.4249V33.6109Z" fill="white"/>
<path fill-rule="evenodd" clip-rule="evenodd" d="M50.2995 13.3977L69.7506 12.0755C71.0598 12.0755 71.9949 13.3977 71.2468 14.3421L57.5937 33.2301C57.2196 33.4189 56.8455 33.7967 56.2845 33.7967H25.6116C25.379 33.7683 25.1563 33.6851 24.9614 33.5539C24.7665 33.4226 24.6048 33.247 24.4894 33.0412L10.8363 14.3421C10.0881 13.3977 10.8363 11.8867 12.1455 12.0755L31.5965 13.3977L39.8258 4.33148C40.3869 3.57596 41.6961 3.57596 42.0702 4.33148L50.2995 13.2088V13.3977ZM54.4142 30.7746L41.6961 26.0526V30.7746H54.4142ZM40.1999 30.7746V26.0526L27.4819 30.7746H40.3869H40.1999ZM38.7037 25.1082L25.7986 29.8302L16.4471 16.6087L38.8907 24.9194L38.7037 25.1082ZM43.1924 25.1082L56.2845 29.8302L65.6359 16.6087L43.1924 24.9194V25.1082ZM40.1999 23.975V8.29795L29.7262 20.0085L40.1999 23.7861V23.975ZM41.6961 23.975V8.29795L52.3568 20.0085L41.6961 23.7861V23.975ZM26.5467 18.8752L28.9781 16.2309L17.0082 15.4754L26.5467 18.8752ZM55.3493 18.8752L52.9179 16.2309L64.7008 15.4754L55.3493 18.8752Z" fill="#006CFF"/>
</svg>
