<svg width="174" height="36" viewBox="0 0 174 36" fill="none" xmlns="http://www.w3.org/2000/svg">
<g clip-path="url(#clip0_2001_4121)">
<path fill-rule="evenodd" clip-rule="evenodd" d="M72.8503 21.7138C73.2146 20.7864 73.3975 19.7103 73.3975 18.487C73.3975 17.2632 73.2117 16.1873 72.8396 15.2595C72.4678 14.3313 71.9579 13.551 71.3107 12.9186C70.6633 12.2862 69.9057 11.8121 69.0382 11.4958C68.1701 11.1792 67.2473 11.0208 66.2697 11.0208C65.3191 11.0208 64.4132 11.1792 63.5528 11.4958C62.6915 11.8121 61.9337 12.2862 61.28 12.9186C60.6257 13.551 60.1054 14.3313 59.7199 15.2595C59.3343 16.1873 59.1413 17.2632 59.1413 18.487C59.1413 19.7103 59.3276 20.7864 59.6995 21.7138C60.0715 22.6421 60.5806 23.419 61.2283 24.0441C61.8754 24.6702 62.6333 25.1407 63.5011 25.4568C64.3689 25.7734 65.2915 25.9315 66.2697 25.9315C67.2747 25.9315 68.2152 25.7734 69.0896 25.4568C69.9641 25.1407 70.7185 24.6702 71.352 24.0441C71.9853 23.419 72.4849 22.6421 72.8503 21.7138ZM62.726 20.3839C62.5538 19.8202 62.4679 19.1877 62.4679 18.487C62.4679 17.7995 62.5538 17.1705 62.726 16.5996C62.8982 16.0292 63.1463 15.5413 63.4701 15.1359C63.7932 14.7301 64.1896 14.4138 64.6582 14.1868C65.1261 13.9602 65.6632 13.8468 66.2697 13.8468C66.8617 13.8468 67.3955 13.9567 67.8711 14.1768C68.3457 14.3962 68.7456 14.7093 69.0689 15.1148C69.3924 15.5209 69.6408 16.0084 69.813 16.5788C69.9852 17.1495 70.0713 17.7854 70.0713 18.487C70.0713 19.1877 69.9852 19.8202 69.813 20.3839C69.6408 20.9479 69.3924 21.4324 69.0689 21.8378C68.7456 22.2438 68.3457 22.5561 67.8711 22.7759C67.3955 22.9965 66.8617 23.1067 66.2697 23.1067C65.6632 23.1067 65.1261 22.9965 64.6582 22.7759C64.1896 22.5561 63.7932 22.2438 63.4701 21.8378C63.1463 21.4324 62.8982 20.9479 62.726 20.3839Z" fill="white"/>
<path d="M81.5022 23.1888C81.9567 23.1888 82.3319 23.1513 82.6281 23.0752C82.9242 22.9999 83.1619 22.897 83.3408 22.7655C83.5196 22.6354 83.6438 22.4809 83.7129 22.3021C83.7819 22.1236 83.8162 21.924 83.8162 21.704C83.8162 21.2368 83.5956 20.8479 83.155 20.5389C82.7141 20.2293 81.9567 19.8962 80.8824 19.5381C80.4139 19.3737 79.9455 19.1842 79.4772 18.9714C79.009 18.7586 78.5888 18.4904 78.217 18.1671C77.8455 17.8442 77.5422 17.4523 77.3081 16.9912C77.0738 16.531 76.9568 15.971 76.9568 15.3109C76.9568 14.6508 77.0808 14.0562 77.3286 13.527C77.5768 12.9976 77.9279 12.5477 78.3826 12.176C78.837 11.8046 79.3877 11.52 80.0351 11.3202C80.6826 11.1212 81.4124 11.0208 82.2253 11.0208C83.1893 11.0208 84.0229 11.1246 84.7255 11.3305C85.4275 11.5367 86.0062 11.7639 86.4607 12.0114L85.5312 14.5479C85.1314 14.3417 84.687 14.1594 84.1985 14.0011C83.7094 13.8433 83.1206 13.7638 82.4321 13.7638C81.6605 13.7638 81.106 13.8711 80.7686 14.0839C80.4312 14.2969 80.2622 14.6237 80.2622 15.0632C80.2622 15.3248 80.3246 15.545 80.4485 15.7233C80.5722 15.902 80.7481 16.0635 80.9752 16.208C81.2025 16.3521 81.4643 16.4831 81.7607 16.5996C82.0562 16.7167 82.3836 16.8366 82.7421 16.9603C83.4855 17.2358 84.1329 17.5071 84.6842 17.7752C85.2348 18.0434 85.693 18.3563 86.0582 18.7136C86.4228 19.0709 86.6949 19.4905 86.8743 19.9718C87.0529 20.4533 87.1427 21.0373 87.1427 21.7242C87.1427 23.0579 86.6742 24.0926 85.7375 24.8278C84.8008 25.5638 83.389 25.9317 81.5022 25.9317C80.8687 25.9317 80.2968 25.8937 79.7872 25.8181C79.2776 25.742 78.8267 25.6494 78.4341 25.5396C78.0417 25.4297 77.7039 25.3129 77.4214 25.1893C77.1392 25.0653 76.9017 24.9487 76.7086 24.8382L77.6181 22.2814C78.0445 22.5155 78.5715 22.7248 79.1988 22.91C79.8251 23.0959 80.5933 23.1888 81.5022 23.1888Z" fill="white"/>
<path d="M101.342 11.3515V14.0945H97.0241V25.6428H93.8012V14.0945H89.4826V11.3515H101.342Z" fill="white"/>
<path d="M104.922 25.6431H108.146V11.3515H104.922V25.6431Z" fill="white"/>
<path d="M122.573 25.6428C121.65 24.0069 120.652 22.3917 119.578 20.7964C118.502 19.2015 117.359 17.6962 116.148 16.28V25.6428H112.966V11.3515H115.59C116.044 11.8048 116.547 12.3617 117.098 13.0218C117.649 13.6819 118.209 14.3866 118.782 15.1358C119.353 15.885 119.921 16.6618 120.486 17.4658C121.051 18.27 121.581 19.0432 122.077 19.7857V11.3515H125.28V25.6428H122.573Z" fill="white"/>
<path d="M137.083 13.8263C135.582 13.8263 134.497 14.2421 133.829 15.0738C133.16 15.9058 132.827 17.043 132.827 18.4871C132.827 19.1876 132.909 19.824 133.074 20.3944C133.24 20.9645 133.488 21.4559 133.818 21.8686C134.149 22.2812 134.562 22.601 135.058 22.8279C135.554 23.0546 136.132 23.168 136.793 23.168C137.151 23.168 137.458 23.161 137.713 23.1475C137.968 23.134 138.191 23.1065 138.384 23.065V18.0952H141.608V25.1686C141.222 25.3201 140.603 25.4813 139.748 25.6528C138.894 25.8244 137.84 25.911 136.587 25.911C135.513 25.911 134.538 25.7457 133.664 25.4161C132.788 25.0857 132.041 24.6049 131.422 23.9722C130.803 23.3401 130.324 22.563 129.986 21.6419C129.648 20.7214 129.48 19.6695 129.48 18.4871C129.48 17.2907 129.666 16.2322 130.038 15.3108C130.41 14.39 130.918 13.6092 131.567 12.9701C132.214 12.3309 132.974 11.8463 133.85 11.5165C134.724 11.1863 135.657 11.0208 136.648 11.0208C137.324 11.0208 137.933 11.066 138.477 11.1551C139.021 11.2448 139.489 11.3478 139.882 11.4648C140.274 11.5813 140.599 11.7016 140.853 11.8256C141.109 11.9493 141.29 12.0459 141.401 12.1145L140.471 14.692C140.031 14.4584 139.523 14.256 138.953 14.0838C138.381 13.9119 137.758 13.8263 137.083 13.8263Z" fill="white"/>
<path d="M146.117 25.6428V11.3515H155.787V14.053H149.341V16.8573H155.064V19.4973H149.341V22.9413H156.262V25.6428H146.117Z" fill="white"/>
<path fill-rule="evenodd" clip-rule="evenodd" d="M169.284 12.3306C168.141 11.5674 166.495 11.1861 164.346 11.1861C163.754 11.1861 163.082 11.2135 162.332 11.2689C161.582 11.3234 160.854 11.4203 160.153 11.557V25.6426H163.375V20.4246H164.966C165.243 20.7551 165.519 21.1227 165.796 21.5287C166.072 21.9342 166.354 22.3633 166.636 22.8172C166.92 23.271 167.195 23.7388 167.466 24.2198C167.734 24.7011 168.001 25.1752 168.264 25.6426H171.866C171.619 25.1204 171.351 24.5877 171.061 24.0442C170.772 23.5015 170.473 22.9793 170.162 22.4775C169.853 21.9757 169.538 21.4944 169.222 21.0336C168.905 20.5731 168.603 20.1642 168.313 19.8064C169.182 19.4494 169.845 18.9574 170.307 18.3322C170.769 17.7067 170.999 16.8915 170.999 15.8883C170.999 14.2794 170.427 13.0937 169.284 12.3306ZM163.902 13.9496C164.088 13.9361 164.298 13.9291 164.532 13.9291C165.565 13.9291 166.347 14.077 166.877 14.3721C167.408 14.6685 167.673 15.1662 167.673 15.8675C167.673 16.5965 167.412 17.1124 166.888 17.4144C166.364 17.7171 165.497 17.8676 164.285 17.8676H163.375V13.9908C163.541 13.9776 163.716 13.9637 163.902 13.9496Z" fill="white"/>
<path d="M51.5929 11.4671H54.8354V25.7081H51.5929V19.6665H46.1474V25.7081H42.9048V11.4671H46.1474V16.9125H51.5929V11.4671Z" fill="white"/>
<path fill-rule="evenodd" clip-rule="evenodd" d="M20.7766 1.5V11.6843L29.0765 16.4963V5.69396L20.7766 1.5ZM-0.192034 1.5005V17.482H26.8016L18.5887 13.0071L7.88984 13.0019V5.80147L-0.192034 1.5005ZM20.7766 31.2177V24.0793L9.99528 24.0718C10.0053 24.1194 1.646 19.5255 1.646 19.5255L29.0763 19.6539V35.6351L20.7766 31.2177ZM-0.192034 20.7741L-0.192322 31.2177L7.88984 35.4114V25.4723L-0.192034 20.7741Z" fill="#6741C9"/>
</g>
<defs>
<clipPath id="clip0_2001_4121">
<rect width="173" height="35" fill="white" transform="translate(0.0391235 0.5)"/>
</clipPath>
</defs>
</svg>
