<svg width="191" height="36" viewBox="0 0 191 36" fill="none" xmlns="http://www.w3.org/2000/svg">
<path d="M55.8897 28.6819C59.0056 28.6819 60.5779 27.0729 61.2631 25.9772H61.5718C61.7074 27.1409 62.5297 28.2366 64.1381 28.2366H67.1833V24.812H66.3971C65.8489 24.812 65.5748 24.5041 65.5748 24.0256V10.2954H61.5358V12.487H61.2285C60.4423 11.3912 58.7993 9.85021 55.7873 9.85021C50.9966 9.85021 47.4365 13.8212 47.4365 19.2653C47.4365 24.7094 51.0644 28.6819 55.8897 28.6819ZM56.6081 24.7788C53.7677 24.7788 51.5448 22.6899 51.5448 19.3C51.5448 15.978 53.6999 13.72 56.5749 13.72C59.3128 13.72 61.605 15.7395 61.605 19.3C61.605 22.3473 59.6533 24.7788 56.6081 24.7788ZM69.5692 35.1942H73.6068V25.9772H73.9141C74.6671 27.0729 76.2755 28.6819 79.4592 28.6819C84.2498 28.6819 87.7408 24.6414 87.7408 19.2653C87.7408 13.8559 84.0104 9.85021 79.1851 9.85021C76.1053 9.85021 74.5979 11.5271 73.8795 12.4523H73.5722V10.2954H69.5678L69.5692 35.1942ZM78.6038 24.8814C75.8312 24.8814 73.5376 22.8272 73.5376 19.2653C73.5376 16.218 75.4893 13.6507 78.5345 13.6507C81.3763 13.6507 83.5993 15.8769 83.5993 19.2653C83.5993 22.5873 81.4441 24.8814 78.6038 24.8814ZM89.8252 35.1942H93.8643V25.9772H94.1716C94.9246 27.0729 96.533 28.6819 99.7152 28.6819C104.506 28.6819 107.664 24.6414 107.664 19.2653C107.664 13.8559 104.266 9.85021 99.4411 9.85021C96.3613 9.85021 94.8553 11.5271 94.1369 12.4523H93.8282V10.2954H89.8252V35.1942ZM98.8598 24.8814C96.0872 24.8814 93.7951 22.8272 93.7951 19.2653C93.7951 16.218 95.7454 13.6507 98.7905 13.6507C101.632 13.6507 103.857 15.8769 103.857 19.2653C103.857 22.5873 101.7 24.8814 98.8598 24.8814ZM113.004 28.653H118.718L121.969 14.5802H122.175L125.425 28.653H131.108L135.656 10.7118H131.586L128.335 24.8193H128.026L124.776 10.7103H119.403L116.117 24.8193H115.81L112.593 10.7103H108.28L113.004 28.653ZM137.703 28.653H141.742V19.7857C141.742 16.3958 143.314 14.307 146.258 14.307H148.037V10.2665H146.703C144.409 10.2665 142.664 11.8422 141.98 13.3485H141.706V10.7118H137.703V28.653ZM168.078 28.653H171.227V25.0578H168.113C166.881 25.0578 166.367 24.5099 166.367 23.2436V14.2723H171.432V10.7118H166.367V5.67825H162.535V10.7118H159.181V14.2723H162.295V23.2783C162.295 27.0787 164.587 28.653 168.078 28.653ZM182.061 28.6819C185.791 28.6819 189.077 26.8315 190.24 23.1019L186.544 22.21C185.893 24.1962 184.012 25.224 182.027 25.224C179.083 25.224 177.133 23.3057 177.098 20.2931H190.685V19.1627C190.685 13.8212 187.366 9.85021 181.89 9.85021C177.064 9.85021 172.924 13.6507 172.924 19.3C172.924 24.7788 176.585 28.6819 182.061 28.6819ZM177.133 17.3485C177.372 15.1916 179.323 13.376 181.89 13.376C184.354 13.376 186.374 14.917 186.579 17.3485H177.133Z" fill="#EDEDF0"/>
<path fill-rule="evenodd" clip-rule="evenodd" d="M157.384 28.6528H153.345V14.2721H150.198V10.7116H157.384V28.6528Z" fill="#EDEDF0"/>
<path d="M155.066 8.22069C156.538 8.22069 157.633 7.12493 157.633 5.68658C157.633 4.28436 156.538 3.18716 155.066 3.18716C153.594 3.18716 152.499 4.28291 152.499 5.68802C152.499 7.12493 153.594 8.22069 155.066 8.22069Z" fill="#EDEDF0"/>
<path d="M35.5297 24.254V32.1729H15.78C10.0258 32.1729 5.00146 28.9883 2.31402 24.254C1.12486 22.1556 0.425981 19.8143 0.269958 17.4063L0.269958 15.2668C0.340124 14.1679 0.524319 13.0792 0.819562 12.0186C2.666 5.36887 8.66548 0.500134 15.7786 0.500134C22.896 0.500134 28.8941 5.37176 30.7391 12.0171H22.2945C20.9097 9.85019 18.5093 8.41761 15.78 8.41761C13.0508 8.41761 10.6518 9.85019 9.26558 12.0171C8.83711 12.6844 8.5113 13.4124 8.29908 14.1768C8.10459 14.8801 8.00656 15.6067 8.00769 16.3365C8.0045 17.4116 8.21889 18.4761 8.63791 19.4657C9.05693 20.4554 9.67188 21.3496 10.4456 22.0943C11.877 23.4802 13.7897 24.2546 15.78 24.254H35.5297Z" fill="#FD366E"/>
<path d="M35.5297 14.1753V22.0942H21.113C21.887 21.3496 22.5022 20.4555 22.9215 19.4658C23.3407 18.4762 23.5554 17.4116 23.5524 16.3365C23.5531 15.6066 23.4545 14.88 23.2595 14.1768L35.5297 14.1753Z" fill="#FD366E"/>
</svg>
